<svg aria-hidden="true" style="position: absolute; width: 0; height: 0; overflow: hidden;" version="1.1" xmlns="http://www.w3.org/2000/svg" xmlns:xlink="http://www.w3.org/1999/xlink">
<defs>
<symbol id="icon-android" viewBox="0 0 32 32">
<title>android</title>
<path fill="#a4c639" style="fill: var(--color1, #a4c639)" d="M29.528 12.303c0-1.087-0.877-1.971-1.968-1.971s-1.973 0.88-1.973 1.973v8.253c0 1.080 0.884 1.973 1.977 1.973 1.085 0 1.968-0.893 1.968-1.973v-8.267h-0.013zM7.191 10.709l0.005 12.8c0 1.18 0.939 2.12 2.097 2.12h1.417v4.373c0 1.093 0.88 1.976 1.96 1.976s1.956-0.88 1.973-1.957v-4.373h2.657v4.373c0 1.097 0.88 1.977 1.96 1.977 1.097 0 1.976-0.88 1.976-1.987v-4.373h1.437c1.16 0 2.097-0.947 2.097-2.104v-12.84l-17.585 0.015zM20.055 6.803c-0.413 0-0.747-0.333-0.747-0.747 0-0.407 0.333-0.744 0.747-0.747 0.413 0 0.747 0.34 0.747 0.747 0 0.413-0.333 0.747-0.747 0.747zM11.975 6.803c-0.413 0-0.747-0.333-0.747-0.747 0-0.409 0.333-0.744 0.747-0.744s0.747 0.34 0.747 0.76-0.336 0.756-0.76 0.756zM20.348 2.961l1.372-2.521c0.080-0.14 0.019-0.301-0.101-0.38-0.139-0.060-0.299-0.020-0.379 0.12l-1.4 2.533c-1.157-0.54-2.475-0.84-3.853-0.84s-2.691 0.287-3.856 0.804l-1.379-2.537c-0.071-0.131-0.24-0.18-0.371-0.107-0.133 0.060-0.181 0.24-0.107 0.36l1.373 2.5c-2.707 1.396-4.533 4.053-4.533 7.107h17.771c0-3.053-1.824-5.711-4.528-7.107zM4.44 10.323c-1.089 0-1.973 0.887-1.973 1.977v8.256c0 1.093 0.885 1.973 1.979 1.973 1.085 0 1.969-0.88 1.969-1.973v-8.253c0-1.087-0.88-1.971-1.96-1.971z"></path>
</symbol>
<symbol id="icon-javascript" viewBox="0 0 32 32">
<title>javascript</title>
<path fill="#f7df1e" style="fill: var(--color2, #f7df1e)" d="M0 0h32v32h-32v-32zM29.379 24.368c-0.233-1.46-1.184-2.687-4.004-3.831-0.981-0.46-2.072-0.78-2.396-1.52-0.121-0.44-0.14-0.68-0.061-0.94 0.2-0.861 1.22-1.12 2.020-0.88 0.52 0.16 1 0.56 1.301 1.2 1.379-0.901 1.379-0.901 2.34-1.5-0.36-0.56-0.539-0.801-0.781-1.040-0.84-0.94-1.959-1.42-3.779-1.379l-0.94 0.119c-0.901 0.22-1.76 0.7-2.28 1.34-1.52 1.721-1.081 4.721 0.759 5.961 1.82 1.36 4.481 1.659 4.821 2.94 0.32 1.56-1.16 2.060-2.621 1.88-1.081-0.24-1.68-0.781-2.34-1.781l-2.44 1.401c0.28 0.64 0.6 0.919 1.080 1.479 2.32 2.341 8.12 2.221 9.161-1.339 0.039-0.12 0.32-0.94 0.099-2.2l0.061 0.089zM17.401 14.708h-2.997c0 2.584-0.012 5.152-0.012 7.74 0 1.643 0.084 3.151-0.184 3.615-0.44 0.919-1.573 0.801-2.088 0.64-0.528-0.261-0.796-0.621-1.107-1.14-0.084-0.14-0.147-0.261-0.169-0.261l-2.433 1.5c0.407 0.84 1 1.563 1.765 2.023 1.14 0.68 2.672 0.9 4.276 0.54 1.044-0.301 1.944-0.921 2.415-1.881 0.68-1.24 0.536-2.76 0.529-4.461 0.016-2.739 0-5.479 0-8.239l0.005-0.075z"></path>
</symbol>
<symbol id="icon-css3" viewBox="0 0 32 32">
<title>css3</title>
<path fill="#1572b6" style="fill: var(--color3, #1572b6)" d="M2 0h28l-2.547 28.751-11.484 3.249-11.42-3.251-2.549-28.749zM24.787 5.884l-17.573-0.004 0.284 3.496 13.5 0.003-0.34 3.621h-8.853l0.32 3.431h8.243l-0.488 4.697-3.88 1.072-3.941-1.080-0.251-2.813h-3.48l0.387 5.14 7.287 2.271 7.164-2.040 1.623-17.792z"></path>
</symbol>
<symbol id="icon-html5" viewBox="0 0 32 32">
<title>html5</title>
<path fill="#e34f26" style="fill: var(--color4, #e34f26)" d="M2 0h28l-2.547 28.751-11.484 3.249-11.419-3.251-2.551-28.749zM11.375 13l-0.309-3.624 13.412 0.004 0.307-3.496-17.568-0.004 0.931 10.68h12.168l-0.435 4.568-3.88 1.072-3.94-1.080-0.251-2.813h-3.479l0.44 5.561 7.229 1.933 7.172-1.924 0.992-10.876h-12.789z"></path>
</symbol>
<symbol id="icon-bootstrap" viewBox="0 0 32 32">
<title>bootstrap</title>
<path fill="#563d7c" style="fill: var(--color5, #563d7c)" d="M26.667 0h-21.333c-2.943 0.008-5.325 2.391-5.333 5.333v21.333c0 2.933 2.4 5.333 5.333 5.333h21.333c2.933 0 5.333-2.4 5.333-5.333v-21.333c0-2.933-2.4-5.333-5.333-5.333zM23.751 22.473c-0.267 0.643-0.689 1.209-1.231 1.645-0.56 0.453-1.269 0.827-2.143 1.093-0.872 0.271-1.909 0.407-3.111 0.407h-8.576v-18.667h9.069c1.677 0 3.021 0.377 4.027 1.147 1.013 0.773 1.517 1.925 1.517 3.48 0 0.94-0.229 1.747-0.691 2.413-0.459 0.663-1.12 1.181-1.973 1.541v0.061c1.139 0.24 2.020 0.78 2.6 1.62s0.877 1.901 0.877 3.183c0 0.717-0.139 1.4-0.4 2.037l0.033 0.036zM20.049 17.873c-0.547-0.5-1.315-0.744-2.307-0.744h-5.763v5.824h5.779c0.987 0 1.76-0.256 2.307-0.773 0.547-0.513 0.827-1.245 0.827-2.187-0.009-0.92-0.28-1.632-0.827-2.12h-0.023zM19.249 14.109c0.528-0.448 0.787-1.089 0.787-1.925 0-0.939-0.233-1.605-0.707-1.987-0.469-0.38-1.147-0.577-2.037-0.577h-5.333v5.151h5.333c0.777 0 1.44-0.227 1.952-0.661z"></path>
</symbol>
<symbol id="icon-mail" viewBox="0 0 20 20">
<title>mail</title>
<path d="M1.574 5.286c0.488 0.262 7.248 3.894 7.5 4.029s0.578 0.199 0.906 0.199c0.328 0 0.654-0.064 0.906-0.199s7.012-3.767 7.5-4.029c0.489-0.263 0.951-1.286 0.054-1.286h-16.919c-0.897 0-0.435 1.023 0.053 1.286zM18.613 7.489c-0.555 0.289-7.387 3.849-7.727 4.027s-0.578 0.199-0.906 0.199-0.566-0.021-0.906-0.199-7.133-3.739-7.688-4.028c-0.39-0.204-0.386 0.035-0.386 0.219s0 7.293 0 7.293c0 0.42 0.566 1 1 1h16c0.434 0 1-0.58 1-1 0 0 0-7.108 0-7.292s0.004-0.423-0.387-0.219z"></path>
</symbol>
<symbol id="icon-sound-mix" viewBox="0 0 20 20">
<title>sound-mix</title>
<path d="M5 1.6c0-0.553-0.448-0.6-1-0.6-0.553 0-1 0.047-1 0.6v8.4h2v-8.4zM3 18.4c0 0.551 0.447 0.6 1 0.6 0.552 0 1-0.049 1-0.6v-3.4h-2v3.4zM6.399 11h-4.8c-0.553 0-0.599 0.448-0.599 1v1c0 0.553 0.046 1 0.599 1h4.801c0.55 0 0.6-0.447 0.6-1v-1c0-0.552-0.050-1-0.601-1zM18.399 12h-4.801c-0.552 0-0.598 0.448-0.598 1v1c0 0.553 0.046 1 0.599 1h4.801c0.55 0 0.6-0.447 0.6-1v-1c0-0.552-0.050-1-0.601-1zM13 7c0-0.552-0.050-1-0.601-1h-4.8c-0.553 0-0.599 0.448-0.599 1v1c0 0.553 0.046 1 0.599 1h4.801c0.55 0 0.6-0.447 0.6-1v-1zM11 1.6c0-0.553-0.448-0.6-1-0.6-0.553 0-1 0.047-1 0.6v3.4h2v-3.4zM9 18.4c0 0.551 0.447 0.6 1 0.6 0.552 0 1-0.049 1-0.6v-8.4h-2v8.4zM17 1.6c0-0.553-0.448-0.6-1-0.6-0.553 0-1 0.047-1 0.6v9.4h2v-9.4zM15 18.4c0 0.551 0.447 0.6 1 0.6 0.552 0 1-0.049 1-0.6v-2.4h-2v2.4z"></path>
</symbol>
<symbol id="icon-office" viewBox="0 0 32 32">
<title>office</title>
<path d="M0 32h16v-32h-16v32zM10 4h4v4h-4v-4zM10 12h4v4h-4v-4zM10 20h4v4h-4v-4zM2 4h4v4h-4v-4zM2 12h4v4h-4v-4zM2 20h4v4h-4v-4zM18 10h14v2h-14zM18 32h4v-8h6v8h4v-18h-14z"></path>
</symbol>
<symbol id="icon-camera" viewBox="0 0 32 32">
<title>camera</title>
<path d="M9.5 19c0 3.59 2.91 6.5 6.5 6.5s6.5-2.91 6.5-6.5-2.91-6.5-6.5-6.5-6.5 2.91-6.5 6.5zM30 8h-7c-0.5-2-1-4-3-4h-8c-2 0-2.5 2-3 4h-7c-1.1 0-2 0.9-2 2v18c0 1.1 0.9 2 2 2h28c1.1 0 2-0.9 2-2v-18c0-1.1-0.9-2-2-2zM16 27.875c-4.902 0-8.875-3.973-8.875-8.875s3.973-8.875 8.875-8.875c4.902 0 8.875 3.973 8.875 8.875s-3.973 8.875-8.875 8.875zM30 14h-4v-2h4v2z"></path>
</symbol>
<symbol id="icon-headphones" viewBox="0 0 32 32">
<title>headphones</title>
<path d="M9 18h-2v14h2c0.55 0 1-0.45 1-1v-12c0-0.55-0.45-1-1-1z"></path>
<path d="M23 18c-0.55 0-1 0.45-1 1v12c0 0.55 0.45 1 1 1h2v-14h-2z"></path>
<path d="M32 16c0-8.837-7.163-16-16-16s-16 7.163-16 16c0 1.919 0.338 3.759 0.958 5.464-0.609 1.038-0.958 2.246-0.958 3.536 0 3.526 2.608 6.443 6 6.929v-13.857c-0.997 0.143-1.927 0.495-2.742 1.012-0.168-0.835-0.258-1.699-0.258-2.584 0-7.18 5.82-13 13-13s13 5.82 13 13c0 0.885-0.088 1.749-0.257 2.584-0.816-0.517-1.745-0.87-2.743-1.013v13.858c3.392-0.485 6-3.402 6-6.929 0-1.29-0.349-2.498-0.958-3.536 0.62-1.705 0.958-3.545 0.958-5.465z"></path>
</symbol>
<symbol id="icon-music" viewBox="0 0 32 32">
<title>music</title>
<path d="M30 0h2v23c0 2.761-3.134 5-7 5s-7-2.239-7-5c0-2.761 3.134-5 7-5 1.959 0 3.729 0.575 5 1.501v-11.501l-16 3.556v15.444c0 2.761-3.134 5-7 5s-7-2.239-7-5c0-2.761 3.134-5 7-5 1.959 0 3.729 0.575 5 1.501v-19.501l18-4z"></path>
</symbol>
<symbol id="icon-video-camera" viewBox="0 0 32 32">
<title>video-camera</title>
<path d="M12 9c0-2.761 2.239-5 5-5s5 2.239 5 5c0 2.761-2.239 5-5 5s-5-2.239-5-5zM0 9c0-2.761 2.239-5 5-5s5 2.239 5 5c0 2.761-2.239 5-5 5s-5-2.239-5-5zM24 19v-3c0-1.1-0.9-2-2-2h-20c-1.1 0-2 0.9-2 2v10c0 1.1 0.9 2 2 2h20c1.1 0 2-0.9 2-2v-3l8 5v-14l-8 5zM20 24h-16v-6h16v6z"></path>
</symbol>
<symbol id="icon-mic" viewBox="0 0 32 32">
<title>mic</title>
<path d="M15 22c2.761 0 5-2.239 5-5v-12c0-2.761-2.239-5-5-5s-5 2.239-5 5v12c0 2.761 2.239 5 5 5zM22 14v3c0 3.866-3.134 7-7 7s-7-3.134-7-7v-3h-2v3c0 4.632 3.5 8.447 8 8.944v4.056h-4v2h10v-2h-4v-4.056c4.5-0.497 8-4.312 8-8.944v-3h-2z"></path>
</symbol>
<symbol id="icon-books" viewBox="0 0 36 32">
<title>books</title>
<path d="M7 4h-6c-0.55 0-1 0.45-1 1v22c0 0.55 0.45 1 1 1h6c0.55 0 1-0.45 1-1v-22c0-0.55-0.45-1-1-1zM6 10h-4v-2h4v2z"></path>
<path d="M17 4h-6c-0.55 0-1 0.45-1 1v22c0 0.55 0.45 1 1 1h6c0.55 0 1-0.45 1-1v-22c0-0.55-0.45-1-1-1zM16 10h-4v-2h4v2z"></path>
<path d="M23.909 5.546l-5.358 2.7c-0.491 0.247-0.691 0.852-0.443 1.343l8.999 17.861c0.247 0.491 0.852 0.691 1.343 0.443l5.358-2.7c0.491-0.247 0.691-0.852 0.443-1.343l-8.999-17.861c-0.247-0.491-0.852-0.691-1.343-0.443z"></path>
</symbol>
<symbol id="icon-file-music" viewBox="0 0 32 32">
<title>file-music</title>
<path d="M28.681 7.159c-0.694-0.947-1.662-2.053-2.724-3.116s-2.169-2.030-3.116-2.724c-1.612-1.182-2.393-1.319-2.841-1.319h-15.5c-1.378 0-2.5 1.121-2.5 2.5v27c0 1.378 1.121 2.5 2.5 2.5h23c1.378 0 2.5-1.122 2.5-2.5v-19.5c0-0.448-0.137-1.23-1.319-2.841v0zM24.543 5.457c0.959 0.959 1.712 1.825 2.268 2.543h-4.811v-4.811c0.718 0.556 1.584 1.309 2.543 2.268v0zM28 29.5c0 0.271-0.229 0.5-0.5 0.5h-23c-0.271 0-0.5-0.229-0.5-0.5v-27c0-0.271 0.229-0.5 0.5-0.5 0 0 15.499-0 15.5 0v7c0 0.552 0.448 1 1 1h7v19.5z"></path>
<path d="M23.634 12.227c-0.232-0.19-0.536-0.266-0.83-0.207l-10 2c-0.467 0.094-0.804 0.504-0.804 0.981v7.402c-0.588-0.255-1.271-0.402-2-0.402-2.209 0-4 1.343-4 3s1.791 3 4 3 4-1.343 4-3v-7.18l8-1.6v4.183c-0.588-0.255-1.271-0.402-2-0.402-2.209 0-4 1.343-4 3s1.791 3 4 3 4-1.343 4-3v-10c0-0.3-0.134-0.583-0.366-0.773z"></path>
</symbol>
<symbol id="icon-pushpin" viewBox="0 0 32 32">
<title>pushpin</title>
<path d="M17 0l-3 3 3 3-7 8h-7l5.5 5.5-8.5 11.269v1.231h1.231l11.269-8.5 5.5 5.5v-7l8-7 3 3 3-3-15-15zM14 17l-2-2 7-7 2 2-7 7z"></path>
</symbol>
<symbol id="icon-location" viewBox="0 0 32 32">
<title>location</title>
<path d="M16 0c-5.523 0-10 4.477-10 10 0 10 10 22 10 22s10-12 10-22c0-5.523-4.477-10-10-10zM16 16c-3.314 0-6-2.686-6-6s2.686-6 6-6 6 2.686 6 6-2.686 6-6 6z"></path>
</symbol>
<symbol id="icon-map2" viewBox="0 0 32 32">
<title>map2</title>
<path d="M21 6l-10-4-11 4v24l11-4 10 4 11-4v-24l-11 4zM12 4.554l8 3.2v19.692l-8-3.2v-19.692zM2 7.401l8-2.909v19.744l-8 2.909v-19.744zM30 24.599l-8 2.909v-19.744l8-2.909v19.744z"></path>
</symbol>
<symbol id="icon-calendar" viewBox="0 0 32 32">
<title>calendar</title>
<path d="M10 12h4v4h-4zM16 12h4v4h-4zM22 12h4v4h-4zM4 24h4v4h-4zM10 24h4v4h-4zM16 24h4v4h-4zM10 18h4v4h-4zM16 18h4v4h-4zM22 18h4v4h-4zM4 18h4v4h-4zM26 0v2h-4v-2h-14v2h-4v-2h-4v32h30v-32h-4zM28 30h-26v-22h26v22z"></path>
</symbol>
<symbol id="icon-display" viewBox="0 0 32 32">
<title>display</title>
<path d="M0 2v20h32v-20h-32zM30 20h-28v-16h28v16zM21 24h-10l-1 4-2 2h16l-2-2z"></path>
</symbol>
<symbol id="icon-database" viewBox="0 0 32 32">
<title>database</title>
<path d="M16 0c-8.837 0-16 2.239-16 5v4c0 2.761 7.163 5 16 5s16-2.239 16-5v-4c0-2.761-7.163-5-16-5z"></path>
<path d="M16 17c-8.837 0-16-2.239-16-5v6c0 2.761 7.163 5 16 5s16-2.239 16-5v-6c0 2.761-7.163 5-16 5z"></path>
<path d="M16 26c-8.837 0-16-2.239-16-5v6c0 2.761 7.163 5 16 5s16-2.239 16-5v-6c0 2.761-7.163 5-16 5z"></path>
</symbol>
<symbol id="icon-forward" viewBox="0 0 32 32">
<title>forward</title>
<path d="M8.192 0c-3.554 6.439-4.153 16.259 9.808 15.932v-7.932l12 12-12 12v-7.762c-16.718 0.436-18.58-14.757-9.808-24.238z"></path>
</symbol>
<symbol id="icon-user" viewBox="0 0 32 32">
<title>user</title>
<path d="M18 22.082v-1.649c2.203-1.241 4-4.337 4-7.432 0-4.971 0-9-6-9s-6 4.029-6 9c0 3.096 1.797 6.191 4 7.432v1.649c-6.784 0.555-12 3.888-12 7.918h28c0-4.030-5.216-7.364-12-7.918z"></path>
</symbol>
<symbol id="icon-equalizer2" viewBox="0 0 32 32">
<title>equalizer2</title>
<path d="M28 14h0.5c0.825 0 1.5-0.675 1.5-1.5v-5c0-0.825-0.675-1.5-1.5-1.5h-0.5v-6h-4v6h-0.5c-0.825 0-1.5 0.675-1.5 1.5v5c0 0.825 0.675 1.5 1.5 1.5h0.5v18h4v-18zM24 8h4v4h-4v-4zM18.5 26c0.825 0 1.5-0.675 1.5-1.5v-5c0-0.825-0.675-1.5-1.5-1.5h-0.5v-18h-4v18h-0.5c-0.825 0-1.5 0.675-1.5 1.5v5c0 0.825 0.675 1.5 1.5 1.5h0.5v6h4v-6h0.5zM14 20h4v4h-4v-4zM8.5 14c0.825 0 1.5-0.675 1.5-1.5v-5c0-0.825-0.675-1.5-1.5-1.5h-0.5v-6h-4v6h-0.5c-0.825 0-1.5 0.675-1.5 1.5v5c0 0.825 0.675 1.5 1.5 1.5h0.5v18h4v-18h0.5zM4 8h4v4h-4v-4z"></path>
</symbol>
<symbol id="icon-stats-dots" viewBox="0 0 32 32">
<title>stats-dots</title>
<path d="M4 28h28v4h-32v-32h4zM9 26c-1.657 0-3-1.343-3-3s1.343-3 3-3c0.088 0 0.176 0.005 0.262 0.012l3.225-5.375c-0.307-0.471-0.487-1.033-0.487-1.638 0-1.657 1.343-3 3-3s3 1.343 3 3c0 0.604-0.179 1.167-0.487 1.638l3.225 5.375c0.086-0.007 0.174-0.012 0.262-0.012 0.067 0 0.133 0.003 0.198 0.007l5.324-9.316c-0.329-0.482-0.522-1.064-0.522-1.691 0-1.657 1.343-3 3-3s3 1.343 3 3c0 1.657-1.343 3-3 3-0.067 0-0.133-0.003-0.198-0.007l-5.324 9.316c0.329 0.481 0.522 1.064 0.522 1.691 0 1.657-1.343 3-3 3s-3-1.343-3-3c0-0.604 0.179-1.167 0.487-1.638l-3.225-5.375c-0.086 0.007-0.174 0.012-0.262 0.012s-0.176-0.005-0.262-0.012l-3.225 5.375c0.307 0.471 0.487 1.033 0.487 1.637 0 1.657-1.343 3-3 3z"></path>
</symbol>
<symbol id="icon-stats-bars2" viewBox="0 0 32 32">
<title>stats-bars2</title>
<path d="M9 12h-6c-0.55 0-1 0.45-1 1v18c0 0.55 0.45 1 1 1h6c0.55 0 1-0.45 1-1v-18c0-0.55-0.45-1-1-1zM9 30h-6v-8h6v8zM19 8h-6c-0.55 0-1 0.45-1 1v22c0 0.55 0.45 1 1 1h6c0.55 0 1-0.45 1-1v-22c0-0.55-0.45-1-1-1zM19 30h-6v-10h6v10zM29 4h-6c-0.55 0-1 0.45-1 1v26c0 0.55 0.45 1 1 1h6c0.55 0 1-0.45 1-1v-26c0-0.55-0.45-1-1-1zM29 30h-6v-12h6v12z"></path>
</symbol>
<symbol id="icon-trophy" viewBox="0 0 32 32">
<title>trophy</title>
<path d="M26 6v-4h-20v4h-6v4c0 3.314 2.686 6 6 6 0.627 0 1.232-0.096 1.801-0.275 1.443 2.063 3.644 3.556 6.199 4.075v6.2h-2c-2.209 0-4 1.791-4 4h16c0-2.209-1.791-4-4-4h-2v-6.2c2.555-0.519 4.756-2.012 6.199-4.075 0.568 0.179 1.173 0.275 1.801 0.275 3.314 0 6-2.686 6-6v-4h-6zM6 13.625c-1.999 0-3.625-1.626-3.625-3.625v-2h3.625v2c0 1.256 0.232 2.457 0.655 3.565-0.213 0.039-0.431 0.060-0.655 0.060zM29.625 10c0 1.999-1.626 3.625-3.625 3.625-0.224 0-0.442-0.021-0.655-0.060 0.423-1.107 0.655-2.309 0.655-3.565v-2h3.625v2z"></path>
</symbol>
<symbol id="icon-briefcase" viewBox="0 0 32 32">
<title>briefcase</title>
<path d="M30 8h-8v-2c0-1.1-0.9-2-2-2h-8c-1.1 0-2 0.9-2 2v2h-8c-1.1 0-2 0.9-2 2v18c0 1.1 0.9 2 2 2h28c1.1 0 2-0.9 2-2v-18c0-1.1-0.9-2-2-2zM12 6.004c0.001-0.001 0.002-0.003 0.004-0.004h7.993c0.001 0.001 0.003 0.002 0.004 0.004v1.996h-8v-1.996zM30 16h-4v3c0 0.55-0.45 1-1 1h-2c-0.55 0-1-0.45-1-1v-3h-12v3c0 0.55-0.45 1-1 1h-2c-0.55 0-1-0.45-1-1v-3h-4v-2h28v2z"></path>
</symbol>
<symbol id="icon-airplane" viewBox="0 0 32 32">
<title>airplane</title>
<path d="M24 19.999l-5.713-5.713 13.713-10.286-4-4-17.141 6.858-5.397-5.397c-1.556-1.556-3.728-1.928-4.828-0.828s-0.727 3.273 0.828 4.828l5.396 5.396-6.858 17.143 4 4 10.287-13.715 5.713 5.713v7.999h4l2-6 6-2v-4l-7.999 0z"></path>
</symbol>
<symbol id="icon-power" viewBox="0 0 32 32">
<title>power</title>
<path d="M12 0l-12 16h12l-8 16 28-20h-16l12-12z"></path>
</symbol>
<symbol id="icon-sphere" viewBox="0 0 32 32">
<title>sphere</title>
<path d="M15 2c-8.284 0-15 6.716-15 15s6.716 15 15 15c8.284 0 15-6.716 15-15s-6.716-15-15-15zM23.487 22c0.268-1.264 0.437-2.606 0.492-4h3.983c-0.104 1.381-0.426 2.722-0.959 4h-3.516zM6.513 12c-0.268 1.264-0.437 2.606-0.492 4h-3.983c0.104-1.381 0.426-2.722 0.959-4h3.516zM21.439 12c0.3 1.28 0.481 2.62 0.54 4h-5.979v-4h5.439zM16 10v-5.854c0.456 0.133 0.908 0.355 1.351 0.668 0.831 0.586 1.625 1.488 2.298 2.609 0.465 0.775 0.867 1.638 1.203 2.578h-4.852zM10.351 7.422c0.673-1.121 1.467-2.023 2.298-2.609 0.443-0.313 0.895-0.535 1.351-0.668v5.854h-4.852c0.336-0.94 0.738-1.803 1.203-2.578zM14 12v4h-5.979c0.059-1.38 0.24-2.72 0.54-4h5.439zM2.997 22c-0.533-1.278-0.854-2.619-0.959-4h3.983c0.055 1.394 0.224 2.736 0.492 4h-3.516zM8.021 18h5.979v4h-5.439c-0.3-1.28-0.481-2.62-0.54-4zM14 24v5.854c-0.456-0.133-0.908-0.355-1.351-0.668-0.831-0.586-1.625-1.488-2.298-2.609-0.465-0.775-0.867-1.638-1.203-2.578h4.852zM19.649 26.578c-0.673 1.121-1.467 2.023-2.298 2.609-0.443 0.312-0.895 0.535-1.351 0.668v-5.854h4.852c-0.336 0.94-0.738 1.802-1.203 2.578zM16 22v-4h5.979c-0.059 1.38-0.24 2.72-0.54 4h-5.439zM23.98 16c-0.055-1.394-0.224-2.736-0.492-4h3.516c0.533 1.278 0.855 2.619 0.959 4h-3.983zM25.958 10h-2.997c-0.582-1.836-1.387-3.447-2.354-4.732 1.329 0.636 2.533 1.488 3.585 2.54 0.671 0.671 1.261 1.404 1.766 2.192zM5.808 7.808c1.052-1.052 2.256-1.904 3.585-2.54-0.967 1.285-1.771 2.896-2.354 4.732h-2.997c0.504-0.788 1.094-1.521 1.766-2.192zM4.042 24h2.997c0.583 1.836 1.387 3.447 2.354 4.732-1.329-0.636-2.533-1.488-3.585-2.54-0.671-0.671-1.261-1.404-1.766-2.192zM24.192 26.192c-1.052 1.052-2.256 1.904-3.585 2.54 0.967-1.285 1.771-2.896 2.354-4.732h2.997c-0.504 0.788-1.094 1.521-1.766 2.192z"></path>
</symbol>
<symbol id="icon-earth" viewBox="0 0 32 32">
<title>earth</title>
<path d="M16 0c-8.837 0-16 7.163-16 16s7.163 16 16 16 16-7.163 16-16-7.163-16-16-16zM16 30c-1.967 0-3.84-0.407-5.538-1.139l7.286-8.197c0.163-0.183 0.253-0.419 0.253-0.664v-3c0-0.552-0.448-1-1-1-3.531 0-7.256-3.671-7.293-3.707-0.188-0.188-0.442-0.293-0.707-0.293h-4c-0.552 0-1 0.448-1 1v6c0 0.379 0.214 0.725 0.553 0.894l3.447 1.724v5.871c-3.627-2.53-6-6.732-6-11.489 0-2.147 0.484-4.181 1.348-6h3.652c0.265 0 0.52-0.105 0.707-0.293l4-4c0.188-0.188 0.293-0.442 0.293-0.707v-2.419c1.268-0.377 2.61-0.581 4-0.581 2.2 0 4.281 0.508 6.134 1.412-0.13 0.109-0.256 0.224-0.376 0.345-1.133 1.133-1.757 2.64-1.757 4.243s0.624 3.109 1.757 4.243c1.139 1.139 2.663 1.758 4.239 1.758 0.099 0 0.198-0.002 0.297-0.007 0.432 1.619 1.211 5.833-0.263 11.635-0.014 0.055-0.022 0.109-0.026 0.163-2.541 2.596-6.084 4.208-10.004 4.208z"></path>
</symbol>
<symbol id="icon-cross" viewBox="0 0 32 32">
<title>cross</title>
<path d="M31.708 25.708c-0-0-0-0-0-0l-9.708-9.708 9.708-9.708c0-0 0-0 0-0 0.105-0.105 0.18-0.227 0.229-0.357 0.133-0.356 0.057-0.771-0.229-1.057l-4.586-4.586c-0.286-0.286-0.702-0.361-1.057-0.229-0.13 0.048-0.252 0.124-0.357 0.228 0 0-0 0-0 0l-9.708 9.708-9.708-9.708c-0-0-0-0-0-0-0.105-0.104-0.227-0.18-0.357-0.228-0.356-0.133-0.771-0.057-1.057 0.229l-4.586 4.586c-0.286 0.286-0.361 0.702-0.229 1.057 0.049 0.13 0.124 0.252 0.229 0.357 0 0 0 0 0 0l9.708 9.708-9.708 9.708c-0 0-0 0-0 0-0.104 0.105-0.18 0.22F7-0.229 0.357-0.133 0.355-0.057 0.771 0.229 1.057l4.586 4.586c0.286 0.286 0.702 0.361 1.057 0.229 0.13-0.049 0.252-0.124 0.357-0.229 0-0 0-0 0-0l9.708-9.708 9.708 9.708c0 0 0 0 0 0 0.105 0.105 0.227 0.18 0.357 0.229 0.356 0.133 0.771 0.057 1.057-0.229l4.586-4.586c0.286-0.286 0.362-0.702 0.229-1.057-0.049-0.13-0.124-0.252-0.229-0.357z"></path>
</symbol>
<symbol id="icon-checkmark" viewBox="0 0 32 32">
<title>checkmark</title>
<path d="M27 4l-15 15-7-7-5 5 12 12 20-20z"></path>
</symbol>
<symbol id="icon-circle-up" viewBox="0 0 32 32">
<title>circle-up</title>
<path d="M0 16c0 8.837 7.163 16 16 16s16-7.163 16-16-7.163-16-16-16-16 7.163-16 16zM29 16c0 7.18-5.82 13-13 13s-13-5.82-13-13 5.82-13 13-13 13 5.82 13 13z"></path>
<path d="M22.086 20.914l2.829-2.829-8.914-8.914-8.914 8.914 2.828 2.828 6.086-6.086z"></path>
</symbol>
<symbol id="icon-circle-right" viewBox="0 0 32 32">
<title>circle-right</title>
<path d="M16 0c-8.837 0-16 7.163-16 16s7.163 16 16 16 16-7.163 16-16-7.163-16-16-16zM16 29c-7.18 0-13-5.82-13-13s5.82-13 13-13 13 5.82 13 13-5.82 13-13 13z"></path>
<path d="M11.086 22.086l2.829 2.829 8.914-8.914-8.914-8.914-2.828 2.828 6.086 6.086z"></path>
</symbol>
<symbol id="icon-embed2" viewBox="0 0 40 32">
<title>embed2</title>
<path d="M26 23l3 3 10-10-10-10-3 3 7 7z"></path>
<path d="M14 9l-3-3-10 10 10 10 3-3-7-7z"></path>
<path d="M21.916 4.704l2.171 0.592-6 22.001-2.171-0.592 6-22.001z"></path>
</symbol>
<symbol id="icon-facebook2" viewBox="0 0 32 32">
<title>facebook2</title>
<path d="M29 0h-26c-1.65 0-3 1.35-3 3v26c0 1.65 1.35 3 3 3h13v-14h-4v-4h4v-2c0-3.306 2.694-6 6-6h4v4h-4c-1.1 0-2 0.9-2 2v2h6l-1 4h-5v14h9c1.65 0 3-1.35 3-3v-26c0-1.65-1.35-3-3-3z"></path>
</symbol>
<symbol id="icon-instagram" viewBox="0 0 32 32">
<title>instagram</title>
<path d="M16 2.881c4.275 0 4.781 0.019 6.462 0.094 1.563 0.069 2.406 0.331 2.969 0.55 0.744 0.288 1.281 0.638 1.837 1.194 0.563 0.563 0.906 1.094 1.2 1.838 0.219 0.563 0.481 1.412 0.55 2.969 0.075 1.688 0.094 2.194 0.094 6.463s-0.019 4.781-0.094 6.463c-0.069 1.563-0.331 2.406-0.55 2.969-0.288 0.744-0.637 1.281-1.194 1.837-0.563 0.563-1.094 0.906-1.837 1.2-0.563 0.219-1.413 0.481-2.969 0.55-1.688 0.075-2.194 0.094-6.463 0.094s-4.781-0.019-6.463-0.094c-1.563-0.069-2.406-0.331-2.969-0.55-0.744-0.288-1.281-0.637-1.838-1.194-0.563-0.563-0.906-1.094-1.2-1.837-0.219-0.563-0.481-1.413-0.55-2.969-0.075-1.688-0.094-2.194-0.094-6.463s0.019-4.781 0.094-6.463c0.069-1.563 0.331-2.406 0.55-2.969 0.288-0.744 0.638-1.281 1.194-1.838 0.563-0.563 1.094-0.906 1.838-1.2 0.563-0.219 1.412-0.481 2.969-0.55 1.681-0.075 2.188-0.094 6.463-0.094zM16 0c-4.344 0-4.887 0.019-6.594 0.094-1.7 0.075-2.869 0.35-3.881 0.744-1.056 0.412-1.95 0.956-2.837 1.85-0.894 0.888-1.438 1.781-1.85 2.831-0.394 1.019-0.669 2.181-0.744 3.881-0.075 1.713-0.094 2.256-0.094 6.6s0.019 4.887 0.094 6.594c0.075 1.7 0.35 2.869 0.744 3.881 0.413 1.056 0.956 1.95 1.85 2.837 0.887 0.887 1.781 1.438 2.831 1.844 1.019 0.394 2.181 0.669 3.881 0.744 1.706 0.075 2.25 0.094 6.594 0.094s4.888-0.019 6.594-0.094c1.7-0.075 2.869-0.35 3.881-0.744 1.050-0.406 1.944-0.956 2.831-1.844s1.438-1.781 1.844-2.831c0.394-1.019 0.669-2.181 0.744-3.881 0.075-1.706 0.094-2.25 0.094-6.594s-0.019-4.887-0.094-6.594c-0.075-1.7-0.35-2.869-0.744-3.881-0.394-1.063-0.938-1.956-1.831-2.844-0.887-0.887-1.781-1.438-2.831-1.844-1.019-0.394-2.181-0.669-3.881-0.744-1.712-0.081-2.256-0.1-6.6-0.1v0z"></path>
<path d="M16 7.781c-4.537 0-8.219 3.681-8.219 8.219s3.681 8.219 8.219 8.219 8.219-3.681 8.219-8.219c0-4.537-3.681-8.219-8.219-8.219zM16 21.331c-2.944 0-5.331-2.387-5.331-5.331s2.387-5.331 5.331-5.331c2.944 0 5.331 2.387 5.331 5.331s-2.387 5.331-5.331 5.331z"></path>
<path d="M26.462 7.456c0 1.060-0.859 1.919-1.919 1.919s-1.919-0.859-1.919-1.919c0-1.060 0.859-1.919 1.919-1.919s1.919 0.859 1.919 1.919z"></path>
</symbol>
<symbol id="icon-whatsapp" viewBox="0 0 32 32">
<title>whatsapp</title>
<path d="M27.281 4.65c-2.994-3-6.975-4.65-11.219-4.65-8.738 0-15.85 7.112-15.85 15.856 0 2.794 0.731 5.525 2.119 7.925l-2.25 8.219 8.406-2.206c2.319 1.262 4.925 1.931 7.575 1.931h0.006c0 0 0 0 0 0 8.738 0 15.856-7.113 15.856-15.856 0-4.238-1.65-8.219-4.644-11.219zM16.069 29.050v0c-2.369 0-4.688-0.637-6.713-1.837l-0.481-0.288-4.987 1.306 1.331-4.863-0.313-0.5c-1.325-2.094-2.019-4.519-2.019-7.012 0-7.269 5.912-13.181 13.188-13.181 3.519 0 6.831 1.375 9.319 3.862 2.488 2.494 3.856 5.8 3.856 9.325-0.006 7.275-5.919 13.188-13.181 13.188zM23.294 19.175c-0.394-0.2-2.344-1.156-2.706-1.288s-0.625-0.2-0.894 0.2c-0.262 0.394-1.025 1.288-1.256 1.556-0.231 0.262-0.462 0.3-0.856 0.1s-1.675-0.619-3.188-1.969c-1.175-1.050-1.975-2.35-2.206-2.744s-0.025-0.613 0.175-0.806c0.181-0.175 0.394-0.463 0.594-0.694s0.262-0.394 0.394-0.662c0.131-0.262 0.069-0.494-0.031-0.694s-0.894-2.15-1.219-2.944c-0.319-0.775-0.65-0.669-0.894-0.681-0.231-0.012-0.494-0.012-0.756-0.012s-0.694 0.1-1.056 0.494c-0.363 0.394-1.387 1.356-1.387 3.306s1.419 3.831 1.619 4.1c0.2 0.262 2.794 4.269 6.769 5.981 0.944 0.406 1.681 0.65 2.256 0.837 0.95 0.3 1.813 0.256 2.494 0.156 0.762-0.113 2.344-0.956 2.675-1.881s0.331-1.719 0.231-1.881c-0.094-0.175-0.356-0.275-0.756-0.475z"></path>
</symbol>
<symbol id="icon-steam" viewBox="0 0 32 32">
<title>steam</title>
<path d="M22 9c0-1.657 1.343-3 3-3s3 1.343 3 3c0 1.657-1.343 3-3 3s-3-1.343-3-3zM29.95 4.050c-2.734-2.734-7.166-2.734-9.9 0-1.112 1.112-1.771 2.505-1.979 3.95v0l-6.397 9.695c-0.86 0.044-1.712 0.263-2.499 0.657l-4.934-3.857c-1.142-0.893-2.792-0.691-3.685 0.451s-0.691 2.792 0.452 3.685l4.873 3.809c-0.53 2.087 0.021 4.392 1.654 6.025 2.466 2.466 6.464 2.466 8.929 0 1.515-1.515 2.098-3.607 1.752-5.568l7.783-6.968c1.445-0.207 2.838-0.867 3.95-1.979 2.734-2.734 2.734-7.166 0-9.899zM12 28.209c-2.325 0-4.209-1.884-4.209-4.209 0-0.022 0.001-0.044 0.002-0.066l2.091 1.634c0.48 0.375 1.049 0.557 1.615 0.557 0.78 0 1.552-0.346 2.070-1.009 0.893-1.142 0.691-2.792-0.451-3.685l-1.984-1.551c0.28-0.059 0.57-0.090 0.868-0.090 2.325 0 4.209 1.884 4.209 4.209s-1.885 4.209-4.209 4.209zM25 14c-2.761 0-5-2.239-5-5s2.239-5 5-5 5 2.239 5 5-2.239 5-5 5z"></path>
</symbol>
<symbol id="icon-github" viewBox="0 0 32 32">
<title>github</title>
<path d="M16 0.395c-8.836 0-16 7.163-16 16 0 7.069 4.585 13.067 10.942 15.182 0.8 0.148 1.094-0.347 1.094-0.77 0-0.381-0.015-1.642-0.022-2.979-4.452 0.968-5.391-1.888-5.391-1.888-0.728-1.849-1.776-2.341-1.776-2.341-1.452-0.993 0.11-0.973 0.11-0.973 1.606 0.113 2.452 1.649 2.452 1.649 1.427 2.446 3.743 1.739 4.656 1.33 0.143-1.034 0.558-1.74 1.016-2.14-3.554-0.404-7.29-1.777-7.29-7.907 0-1.747 0.625-3.174 1.649-4.295-0.166-0.403-0.714-2.030 0.155-4.234 0 0 1.344-0.43 4.401 1.64 1.276-0.355 2.645-0.532 4.005-0.539 1.359 0.006 2.729 0.184 4.008 0.539 3.054-2.070 4.395-1.64 4.395-1.64 0.871 2.204 0.323 3.831 0.157 4.234 1.026 1.12 1.647 2.548 1.647 4.295 0 6.145-3.743 7.498-7.306 7.895 0.574 0.497 1.085 1.47 1.085 2.963 0 2.141-0.019 3.864-0.019 4.391 0 0.426 0.288 0.925 1.099 0.768 6.354-2.118 10.933-8.113 10.933-15.18 0-8.837-7.164-16-16-16z"></path>
</symbol>
<symbol id="icon-wordpress" viewBox="0 0 32 32">
<title>wordpress</title>
<path d="M4 16c0 4.626 2.76 8.624 6.763 10.518l-5.724-15.274c-0.666 1.453-1.039 3.062-1.039 4.756zM24.101 15.41c0-1.445-0.533-2.445-0.989-3.223-0.608-0.963-1.179-1.778-1.179-2.741 0-1.074 0.836-2.074 2.015-2.074 0.053 0 0.104 0.006 0.155 0.009-2.135-1.905-4.979-3.069-8.103-3.069-4.192 0-7.881 2.095-10.026 5.268 0.282 0.009 0.547 0.014 0.772 0.014 1.255 0 3.198-0.149 3.198-0.149 0.647-0.037 0.723 0.889 0.077 0.963 0 0-0.65 0.074-1.373 0.111l4.37 12.66 2.626-7.671-1.869-4.989c-0.646-0.037-1.259-0.111-1.259-0.111-0.647-0.037-0.571-1 0.076-0.963 0 0 1.981 0.149 3.16 0.149 1.255 0 3.198-0.149 3.198-0.149 0.647-0.037 0.723 0.889 0.076 0.963 0 0-0.651 0.074-1.373 0.111l4.337 12.563 1.197-3.895c0.518-1.617 0.913-2.778 0.913-3.778zM16.211 17.022l-3.601 10.189c1.075 0.308 2.212 0.476 3.39 0.476 1.397 0 2.738-0.235 3.985-0.663-0.032-0.050-0.062-0.103-0.086-0.161l-3.688-9.842zM26.53 10.393c0.052 0.372 0.081 0.771 0.081 1.202 0 1.185-0.228 2.519-0.913 4.186l-3.665 10.321c3.568-2.026 5.967-5.79 5.967-10.102 0-2.032-0.533-3.943-1.47-5.607zM16 0c-8.837 0-16 7.163-16 16s7.163 16 16 16 16-7.163 16-16-7.163-16-16-16zM16 30c-7.732 0-14-6.268-14-14s6.268-14 14-14 14 6.268 14 14-6.268 14-14 14z"></path>
</symbol>
<symbol id="icon-circuit" viewBox="0 0 504.986 504.986">
<title>circuit</title>
		<g>
	<g>
		<path d="M252.493,0C112.921,0,0,112.921,0,252.493s112.921,252.493,252.493,252.493s252.493-112.921,252.493-252.493
			S392.066,0,252.493,0z M340.164,125.545c7.715,0,14.027,6.312,14.027,14.027c0,7.715-6.312,14.027-14.027,14.027
			c-7.715,0-14.027-6.312-14.027-14.027C326.137,131.858,332.449,125.545,340.164,125.545z M252.493,241.973
			c-7.715,0-14.027-6.312-14.027-14.027c0-7.715,6.312-14.027,14.027-14.027c7.715,0,14.027,6.312,14.027,14.027
			C266.521,235.66,260.208,241.973,252.493,241.973z M360.504,448.877V298.784l38.575-38.575c5.611,2.806,11.923,4.208,18.236,4.208
			c23.145,0,42.082-18.937,42.082-42.082s-18.937-42.082-42.082-42.082s-42.082,18.937-42.082,42.082
			c0,6.312,1.403,12.625,4.208,18.236l-42.784,42.784c-2.805,2.805-4.208,6.312-4.208,9.819v169.03
			c-21.041,7.715-42.784,12.625-65.929,14.729V267.923c16.131-5.611,28.055-21.041,28.055-39.277
			c0-23.145-18.937-42.082-42.082-42.082s-42.082,18.937-42.082,42.082c0,18.236,11.923,33.666,28.055,39.277v209.008
			c-23.145-1.403-45.589-6.312-65.929-14.729V347.178c0-3.507-1.403-7.014-4.208-9.819l-25.249-25.249
			c2.805-5.611,4.208-11.923,4.208-18.236c0-23.145-18.937-42.082-42.082-42.082s-42.082,18.937-42.082,42.082
			c0,23.145,18.937,42.082,42.082,42.082c6.312,0,12.625-1.403,18.236-4.208l21.041,21.041v96.088
			C75.047,410.301,28.055,336.658,28.055,252.493c0-110.115,79.255-201.293,183.759-220.932v108.011h-18.937
			c-5.611-16.132-21.041-28.055-39.277-28.055c-23.145,0-42.082,18.937-42.082,42.082s18.937,42.082,42.082,42.082
			c18.236,0,33.666-11.923,39.277-28.055h32.964c7.715,0,14.027-6.312,14.027-14.027V28.756c4.208,0,8.416-0.701,12.625-0.701
			c25.951,0,50.499,4.208,73.644,12.625v59.616c-16.132,5.611-28.055,21.041-28.055,39.277c0,23.145,18.937,42.082,42.082,42.082
			s42.082-18.937,42.082-42.082c0-18.236-11.923-33.666-28.055-39.277V52.603c72.943,37.173,122.74,112.921,122.74,199.89
			C476.932,336.658,429.94,411.003,360.504,448.877z M403.989,222.334c0-7.715,6.312-14.027,14.027-14.027
			c7.715,0,14.027,6.312,14.027,14.027c0,7.715-6.312,14.027-14.027,14.027C410.301,236.362,403.989,230.049,403.989,222.334z
			 M119.233,294.575c0,7.715-6.312,14.027-14.027,14.027s-14.027-6.312-14.027-14.027c0-7.715,6.312-14.027,14.027-14.027
			S119.233,286.86,119.233,294.575z M166.926,153.6c0,7.715-6.312,14.027-14.027,14.027c-7.715,0-14.027-6.312-14.027-14.027
			c0-7.715,6.312-14.027,14.027-14.027C161.315,139.573,166.926,145.885,166.926,153.6z"/>
	</g>
</g>
<g>
</g>
<g>
</g>
<g>
</g>
<g>
</g>
<g>
</g>
<g>
</g>
<g>
</g>
<g>
</g>
<g>
</g>
<g>
</g>
<g>
</g>
<g>
</g>
<g>
</g>
<g>
</g>
<g>
</g>
</symbol>


<symbol id="icon-innovation" viewBox="0 0 512 512.00218">
<title>innovation</title>
<path d="m360.023438 97.917969c-38.75-31.503907-89.542969-43.613281-139.367188-33.230469-64.742188 13.496094-115.921875 66.914062-127.140625 132.117188-9.84375 57.1875 9.851563 111.496093 48.390625 148.394531 24.84375 23.785156 39.09375 56.882812 39.09375 90.804687v31c0 24.8125 20.1875 45 45 45h60c24.8125 0 45-20.1875 45-45 0-27.410156 0 25.652344 0-39.929687 0-29.058594 13.523438-57.796875 38.082031-80.917969 32.992188-31.0625 51.914063-74.855469 51.914063-120.152344.003906-49.894531-22.222656-96.578125-60.972656-128.085937zm-74.023438 384.082031h-60c-8.269531 0-15-6.730469-15-15v-16h90v16c0 8.269531-6.730469 15-15 15zm-30-163.039062-40.699219-61.046876 10.699219-10.699218 19.394531 19.394531c5.855469 5.855469 15.355469 5.855469 21.210938 0l19.394531-19.394531 10.699219 10.699218zm92.519531 5.351562c-28.984375 27.289062-45.648437 61.414062-47.371093 96.6875h-30.148438v-70.457031l56.65625-84.984375 28.949219-28.949219c5.859375-5.859375 5.859375-15.355469 0-21.214844-5.859375-5.855469-15.355469-5.855469-21.214844 0l-19.390625 19.394531-19.394531-19.394531c-5.859375-5.855469-15.355469-5.855469-21.214844 0l-19.394531 19.394531-19.390625-19.394531c-5.859375-5.855469-15.355469-5.855469-21.214844 0l-19.394531 19.394531-19.394532-19.394531c-5.855468-5.855469-15.351562-5.855469-21.210937 0-5.859375 5.859375-5.859375 15.355469 0 21.214844l28.949219 28.949219 56.65625 84.984375v70.457031h-30.746094c-3.648438-36.683594-20.542969-71.566406-47.597656-97.472656-33.015625-31.605469-47.4375-75.941406-39.574219-121.636719 9.203125-53.488281 50.875-96.824219 103.695313-107.835937 40.941406-8.535157 82.609374 1.359374 114.320312 27.140624 31.714844 25.785157 49.902344 63.984376 49.902344 104.804688.003906 37.609375-15.082032 72.523438-42.476563 98.3125zm0 0"/><path d="m60 226c0-8.28125-6.714844-15-15-15h-30c-8.28125 0-15 6.71875-15 15 0 8.285156 6.71875 15 15 15h30c8.285156 0 15-6.714844 15-15zm0 0"/><path d="m497 211h-30c-8.285156 0-15 6.71875-15 15 0 8.285156 6.714844 15 15 15h30c8.28125 0 15-6.714844 15-15 0-8.28125-6.71875-15-15-15zm0 0"/><path d="m81.632812 108.011719-25.980468-15c-7.171875-4.144531-16.347656-1.683594-20.488282 5.492187-4.140624 7.171875-1.683593 16.347656 5.488282 20.488282l25.980468 15c7.171876 4.140624 16.351563 1.6875 20.492188-5.488282 4.140625-7.175781 1.683594-16.347656-5.492188-20.492187zm0 0"/><path d="m471.34375 333.011719-25.980469-15c-7.175781-4.144531-16.347656-1.683594-20.488281 5.488281-4.144531 7.175781-1.6875 16.347656 5.488281 20.492188l25.980469 15c7.167969 4.140624 16.34375 1.6875 20.488281-5.492188 4.144531-7.171875 1.6875-16.347656-5.488281-20.488281zm0 0"/><path d="m138.007812 48.484375c4.144532 7.175781 13.320313 9.628906 20.492188 5.488281s9.632812-13.316406 5.488281-20.488281l-15-25.980469c-4.140625-7.175781-13.316406-9.632812-20.488281-5.492187-7.175781 4.144531-9.632812 13.316406-5.492188 20.492187zm0 0"/><path d="m66.632812 318.011719-25.980468 15c-7.171875 4.140625-9.628906 13.316406-5.488282 20.488281 4.144532 7.179688 13.320313 9.632812 20.488282 5.492188l25.980468-15c7.175782-4.144532 9.632813-13.316407 5.492188-20.492188-4.140625-7.171875-13.316406-9.632812-20.492188-5.488281zm0 0"/><path d="m445.363281 133.992188 25.980469-15c7.175781-4.140626 9.632812-13.316407 5.488281-20.488282-4.140625-7.175781-13.3125-9.632812-20.488281-5.492187l-25.980469 15c-7.175781 4.144531-9.632812 13.316406-5.488281 20.492187 4.140625 7.171875 13.3125 9.632813 20.488281 5.488282zm0 0"/><path d="m353.5 53.972656c7.167969 4.140625 16.34375 1.691406 20.488281-5.488281l15-25.980469c4.144531-7.175781 1.683594-16.347656-5.488281-20.492187-7.175781-4.140625-16.351562-1.683594-20.492188 5.492187l-15 25.980469c-4.140624 7.171875-1.683593 16.347656 5.492188 20.488281zm0 0"/>
</symbol>

<symbol id="icon-circuit-board" viewBox="0 0 496 496" style="enable-background:new 0 0 496 496;">
<title>circuit-board</title>
<g>
	<g>
		<g>
			<path d="M92.688,0L48,44.688V80H0v112h48v128H0v64h48v112h448V0H92.688z M16,176V96h96v80H16z M16,368v-32h96v32H16z M480,480H64
				v-96h64v-24h16v-16h-16v-24H64V192h64v-16h16v-16h-16v-48h16V96h-16V80H64V51.312L99.312,16H480V480z"/>
			<path d="M304,448h112v-16h16v-16h-16v-16h16v-16h-16v-16h16v-16h-16v-16h16v-16h-16v-16h16v-16h-16v-16h16v-16h-16v-16h16v-16
				h-16v-16h16v-16h-16v-16h16v-16h-16v-16h16v-16h-16v-16h16V96h-16V80h16V64h-16V48H304v16h-16v16h16v16h-16v16h16v16h-16v16h16
				v16h-16v16h16v16h-16v16h16v16h-16v16h16v16h-16v16h16v16h-16v16h16v16h-16v16h16v16h-16v16h16v16h-16v16h16v16h-16v16h16V448z
				 M320,64h80v368h-80V64z"/>
			<circle cx="360" cy="88" r="8"/>
			<path d="M256,64h-64v48h64V64z M240,96h-32V80h32V96z"/>
			<path d="M256,144h-64v48h64V144z M240,176h-32v-16h32V176z"/>
			<path d="M144,216v16h-16v-16h-16v16H96v48h16v16h16v-16h16v16h16v-16h16v16h16v-16h16v-48h-16v-16h-16v16h-16v-16H144z M192,248
				v16h-80v-16H192z"/>
			<path d="M112,400c-17.648,0-32,14.352-32,32s14.352,32,32,32s32-14.352,32-32S129.648,400,112,400z M112,448
				c-8.824,0-16-7.176-16-16c0-8.824,7.176-16,16-16c8.816,0,16,7.176,16,16C128,440.824,120.816,448,112,448z"/>
			<path d="M192,400c-17.648,0-32,14.352-32,32s14.352,32,32,32s32-14.352,32-32S209.648,400,192,400z M192,448
				c-8.824,0-16-7.176-16-16c0-8.824,7.176-16,16-16c8.816,0,16,7.176,16,16C208,440.824,200.816,448,192,448z"/>
			<rect x="176" y="336" width="16" height="32"/>
			<rect x="208" y="336" width="16" height="32"/>
			<rect x="240" y="336" width="16" height="32"/>
			<circle cx="96" cy="48" r="8"/>
		</g>
	</g>
</g>
<g>
</g>
<g>
</g>
<g>
</g>
<g>
</g>
<g>
</g>
<g>
</g>
<g>
</g>
<g>
</g>
<g>
</g>
<g>
</g>
<g>
</g>
<g>
</g>
<g>
</g>
<g>
</g>
<g>
</g>
</symbol>

<symbol id="icon-mechanical-arm" viewBox="0 0 480 480.68" >
<title>mechanical-arm</title>

<path d="m280.339844 408.679688h-48v-96c0-10.125-3.226563-19.984376-9.207032-28.152344l-82.703124-135.414063c.773437-1.984375 1.433593-4.007812 1.972656-6.066406l194.035156-67.199219-6.601562 14.175782c-2.292969 4.90625-1.914063 10.640624 1.007812 15.199218 2.917969 4.640625 8.015625 7.457032 13.496094 7.457032h16v16h-16c-4.417969 0-8 3.582031-8 8v24c-2.121094 0-4.15625.84375-5.65625 2.34375l-24 24c-2.339844 2.339843-3 5.878906-1.65625 8.90625l32 72c1.285156 2.886718 4.148437 4.75 7.3125 4.75h24c4.417968 0 8-3.582032 8-8v-88h16v88c0 4.417968 3.582031 8 8 8h24c3.164062 0 6.027344-1.863282 7.3125-4.75l32-72c1.34375-3.027344.683594-6.566407-1.65625-8.90625l-24-24c-1.5-1.5-3.535156-2.34375-5.65625-2.34375v-24c0-4.417969-3.582032-8-8-8h-16v-16h14.9375c4.578125.015624 8.945312-1.941407 11.984375-5.371094 3.039062-3.425782 4.457031-7.996094 3.894531-12.539063l-6.878906-54.496093c-.257813-2.042969-1.292969-3.910157-2.890625-5.210938l-35.863281-29.175781c-3.609376-3.945313-8.953126-5.8359378-14.242188-5.03125-5.292969.800781-9.832031 4.191406-12.109375 9.03125l-4.640625 9.992187-33.101562-19.878906-242.503907 72.753906c-24.914062.589844-46.425781 17.589844-52.753906 41.691406-6.332031 24.101563 4.050781 49.480469 25.457031 62.234376l76.710938 138.074218v29.925782h-88v64h-16v56h-32v16h480v-16h-200zm80-216h-16v16h16v8h-8v16h8v24h-10.800782l-27.65625-62.222657 17.769532-17.777343h20.6875zm86.457031 1.777343-27.65625 62.222657h-10.800781v-24h8v-16h-8v-8h16v-16h-16v-16h20.6875zm-30.457031-33.777343h-64v-16h64zm-24-32h-16v-16h16zm-10.632813-112c.351563.433593.746094.832031 1.175781 1.183593l33.921876 27.617188 6.472656 51.199219-22.746094.039062c-.070312 0-.128906-.039062-.191406-.039062h-32c-.160156 0-.304688.082031-.464844.097656h-23.535156l8.296875-17.824219 12.199219 7.320313c8.550781 5.210937 19.238281 5.445312 28.003906.605468 8.769531-4.839844 14.269531-14.007812 14.414062-24.019531.144532-10.015625-5.089844-19.335937-13.714844-24.425781l-17.199218-10.28125zm3.609375 35.511718c5.632813 3.382813 7.457032 10.691406 4.074219 16.324219-3.378906 5.632813-10.6875 7.457031-16.324219 4.078125l-27.8125-16.714844-201.074218 69.601563c-1.074219-18.628907-11.355469-35.5-27.421876-44.992188l210.496094-63.128906zm-336.976562 76.488282c0-22.089844 17.910156-40 40-40s40 17.910156 40 40c-.046875 6.695312-1.792969 13.269531-5.078125 19.105468l-1.753907 1.0625.625 1.015625c-9.425781 15.140625-27.753906 22.1875-44.894531 17.265625s-28.9375-20.617187-28.898437-38.449218zm40 56c16.535156 0 32.222656-7.324219 42.839844-20l61.601562 100.800781c-2.785156-.519531-5.609375-.785157-8.441406-.800781-18.121094.023437-34.683594 10.25-42.824219 26.441406l-59.335937-106.800782c2.046874.234376 4.101562.351563 6.160156.359376zm64 128c0-17.671876 14.328125-32 32-32s32 14.328124 32 32v96h-64zm-88 48h72v48h-72zm-16 104v-40h216v40zm0 0"/><path d="m184.339844 336.679688c13.253906 0 24-10.746094 24-24 0-13.253907-10.746094-24-24-24s-24 10.746093-24 24c0 13.253906 10.746094 24 24 24zm0-32c4.417968 0 8 3.582031 8 8 0 4.417968-3.582032 8-8 8-4.417969 0-8-3.582032-8-8 0-4.417969 3.582031-8 8-8zm0 0"/><path d="m88.339844 152.679688c13.253906 0 24-10.746094 24-24 0-13.253907-10.746094-24-24-24s-24 10.746093-24 24c0 13.253906 10.746094 24 24 24zm0-32c4.417968 0 8 3.582031 8 8 0 4.417968-3.582032 8-8 8-4.417969 0-8-3.582032-8-8 0-4.417969 3.582031-8 8-8zm0 0"/><path d="m72.339844 368.679688h16v16h-16zm0 0"/><path d="m160.339844 384.679688h16v16h-16zm0 0"/><path d="m192.339844 384.679688h16v16h-16zm0 0"/>
</symbol>

<symbol id="icon-robot-head" viewBox="0 0 24 24" >
<title>robot-head</title>
<g>
	<path d="M22.281,8.789V4.519c0.72-0.217,1.25-0.878,1.25-1.668c0-0.965-0.785-1.75-1.75-1.75s-1.75,0.785-1.75,1.75
		c0,0.79,0.53,1.452,1.25,1.668v3.113C19.099,5.482,15.752,4.1,12,4.1S4.901,5.482,2.719,7.632V4.519
		c0.72-0.217,1.25-0.878,1.25-1.668c0-0.965-0.785-1.75-1.75-1.75s-1.75,0.785-1.75,1.75c0,0.79,0.53,1.452,1.25,1.668v4.271
		C0.696,10.176,0.1,11.782,0.1,13.5c0,5.183,5.338,9.4,11.9,9.4s11.9-4.217,11.9-9.4C23.9,11.782,23.304,10.176,22.281,8.789z
		 M21.031,2.85c0-0.414,0.336-0.75,0.75-0.75s0.75,0.336,0.75,0.75s-0.336,0.75-0.75,0.75S21.031,3.264,21.031,2.85z M1.469,2.85
		c0-0.414,0.336-0.75,0.75-0.75s0.75,0.336,0.75,0.75S2.632,3.6,2.219,3.6S1.469,3.264,1.469,2.85z M19.821,17.276
		c0,1.875-1.525,3.4-3.4,3.4H7.579c-1.875,0-3.4-1.525-3.4-3.4V9.724c0-1.875,1.525-3.4,3.4-3.4h8.843c1.875,0,3.4,1.525,3.4,3.4
		V17.276z"/>
	<path d="M10.958,11.166c0-1.424-1.159-2.583-2.583-2.583s-2.583,1.159-2.583,2.583s1.159,2.583,2.583,2.583
		S10.958,12.59,10.958,11.166z M6.792,11.166c0-0.873,0.71-1.583,1.583-1.583s1.583,0.71,1.583,1.583s-0.71,1.583-1.583,1.583
		S6.792,12.039,6.792,11.166z"/>
	<path d="M15.625,8.583c-1.424,0-2.583,1.159-2.583,2.583s1.159,2.583,2.583,2.583s2.583-1.159,2.583-2.583
		S17.049,8.583,15.625,8.583z M15.625,12.75c-0.873,0-1.583-0.71-1.583-1.583s0.71-1.583,1.583-1.583s1.583,0.71,1.583,1.583
		S16.498,12.75,15.625,12.75z"/>
	<path d="M15.917,15.667H8.084c-0.781,0-1.417,0.636-1.417,1.417S7.303,18.5,8.084,18.5h7.833c0.781,0,1.416-0.635,1.416-1.417
		S16.698,15.667,15.917,15.667z M15.917,17.5H8.084c-0.23,0-0.417-0.187-0.417-0.417c0-0.23,0.187-0.417,0.417-0.417h7.833
		c0.229,0,0.416,0.187,0.416,0.417C16.333,17.313,16.146,17.5,15.917,17.5z"/>
</g>
</symbol>

<symbol id="icon-guitar-pedal" viewBox="0 0 426.014 426.014" >
<title>guitar-pedal</title>
<g>
	<path d="M292.333,292.708H134.451c-2.209,0-4-1.791-4-4s1.791-4,4-4h157.881c2.209,0,4,1.791,4,4S294.542,292.708,292.333,292.708z
		"/>
	<path d="M292.333,310.527H134.451c-2.209,0-4-1.791-4-4s1.791-4,4-4h157.881c2.209,0,4,1.791,4,4S294.542,310.527,292.333,310.527z
		"/>
	<path d="M292.333,328.347H134.451c-2.209,0-4-1.791-4-4s1.791-4,4-4h157.881c2.209,0,4,1.791,4,4S294.542,328.347,292.333,328.347z
		"/>
	<path d="M292.333,346.167H134.451c-2.209,0-4-1.791-4-4s1.791-4,4-4h157.881c2.209,0,4,1.791,4,4S294.542,346.167,292.333,346.167z
		"/>
	<path d="M292.333,363.987H134.451c-2.209,0-4-1.791-4-4s1.791-4,4-4h157.881c2.209,0,4,1.791,4,4S294.542,363.987,292.333,363.987z
		"/>
	<path d="M292.333,381.807H134.451c-2.209,0-4-1.791-4-4s1.791-4,4-4h157.881c2.209,0,4,1.791,4,4S294.542,381.807,292.333,381.807z
		"/>
</g>
<g>
	<path d="M313.045,260.528H113.74c-2.209,0-4,1.791-4,4v137.458c0,2.209,1.791,4,4,4h199.305c2.209,0,4-1.791,4-4V264.528
		C317.045,262.319,315.254,260.528,313.045,260.528z M309.045,397.986H117.74V268.528h191.305V397.986z"/>
	<path d="M125.499,174.772c0.792,0.922,1.911,1.395,3.037,1.395c0.922,0,1.849-0.317,2.604-0.965
		c1.676-1.439,1.869-3.964,0.43-5.641l-7.26-8.457h23.299c2.209,0,4-1.791,4-4s-1.791-4-4-4h-23.299l7.26-8.456
		c1.439-1.676,1.247-4.201-0.429-5.64c-1.676-1.439-4.202-1.247-5.64,0.429l-12.932,15.062c-1.287,1.499-1.287,3.712,0,5.211
		L125.499,174.772z"/>
	<path d="M125.499,229.721c0.792,0.922,1.911,1.395,3.037,1.395c0.922,0,1.849-0.317,2.604-0.965
		c1.676-1.439,1.869-3.964,0.43-5.641l-7.26-8.457h23.299c2.209,0,4-1.791,4-4s-1.791-4-4-4h-23.299l7.26-8.456
		c1.439-1.676,1.247-4.201-0.429-5.64c-1.676-1.439-4.202-1.247-5.64,0.429l-12.932,15.062c-1.287,1.499-1.287,3.712,0,5.211
		L125.499,229.721z"/>
	<path d="M279.176,216.053h23.299l-7.26,8.457c-1.438,1.676-1.247,4.201,0.43,5.64c0.755,0.648,1.682,0.965,2.604,0.965
		c1.126,0,2.246-0.473,3.037-1.395l12.932-15.062c1.286-1.499,1.286-3.712,0-5.211l-12.932-15.062
		c-1.44-1.676-3.965-1.868-5.641-0.429c-1.677,1.439-1.868,3.964-0.43,5.64l7.26,8.456h-23.299c-2.209,0-4,1.791-4,4
		S276.967,216.053,279.176,216.053z"/>
	<path d="M279.176,161.104h23.299l-7.26,8.457c-1.438,1.676-1.247,4.201,0.43,5.64c0.755,0.648,1.682,0.965,2.604,0.965
		c1.126,0,2.246-0.473,3.037-1.395l12.932-15.062c1.286-1.499,1.286-3.712,0-5.211l-12.932-15.062
		c-1.44-1.676-3.965-1.868-5.641-0.429c-1.677,1.439-1.868,3.964-0.43,5.64l7.26,8.456h-23.299c-2.209,0-4,1.791-4,4
		S276.967,161.104,279.176,161.104z"/>
	<path d="M350.099,177.746c2.209,0,4-1.791,4-4v-33.283c0-2.209-1.791-4-4-4H336.57v-9.739c0-7.944-6.142-14.47-13.925-15.107V0
		H104.149v111.617c-7.787,0.633-13.934,7.16-13.934,15.108v9.739H76.689c-2.209,0-4,1.791-4,4v33.283c0,2.209,1.791,4,4,4h13.526
		v11.866h-14.3c-2.209,0-4,1.791-4,4v33.283c0,2.209,1.791,4,4,4h14.3v179.949c0,8.365,6.806,15.17,15.17,15.17h216.014
		c8.365,0,15.171-6.806,15.171-15.17V230.895h13.529c2.209,0,4-1.791,4-4v-33.283c0-2.209-1.791-4-4-4H336.57v-11.866H350.099z
		 M80.689,169.746v-25.283h9.526v25.283H80.689z M79.915,222.895v-25.283h10.3v25.283H79.915z M314.645,8v103.554H112.149V8H314.645
		z M328.57,410.844c0,3.954-3.217,7.17-7.171,7.17H105.385c-3.954,0-7.17-3.217-7.17-7.17V126.725c0-3.954,3.217-7.17,7.17-7.17
		h216.014c3.954,0,7.171,3.217,7.171,7.17V410.844z M346.099,144.463v25.283h-9.529v-25.283H346.099z M346.099,197.612v25.283
		h-9.529v-25.283H346.099z"/>
	<path d="M138.603,90.423c11.167,0,20.252-9.085,20.252-20.252s-9.085-20.252-20.252-20.252s-20.252,9.085-20.252,20.252
		S127.436,90.423,138.603,90.423z M134.603,58.602v6.151c0,2.209,1.791,4,4,4s4-1.791,4-4v-6.151
		c4.795,1.663,8.252,6.215,8.252,11.568c0,6.756-5.497,12.252-12.252,12.252s-12.252-5.497-12.252-12.252
		C126.35,64.817,129.808,60.266,134.603,58.602z"/>
	<path d="M188.313,90.423c11.167,0,20.252-9.085,20.252-20.252s-9.085-20.252-20.252-20.252s-20.252,9.085-20.252,20.252
		S177.146,90.423,188.313,90.423z M184.313,58.602v6.151c0,2.209,1.791,4,4,4s4-1.791,4-4v-6.151
		c4.795,1.663,8.252,6.215,8.252,11.568c0,6.756-5.497,12.252-12.252,12.252s-12.252-5.497-12.252-12.252
		C176.061,64.817,179.518,60.266,184.313,58.602z"/>
	<path d="M217.771,70.171c0,11.167,9.085,20.252,20.253,20.252c11.167,0,20.252-9.085,20.252-20.252s-9.085-20.252-20.252-20.252
		C226.856,49.918,217.771,59.004,217.771,70.171z M234.024,58.602v6.151c0,2.209,1.791,4,4,4s4-1.791,4-4v-6.151
		c4.795,1.663,8.252,6.215,8.252,11.568c0,6.756-5.496,12.252-12.252,12.252s-12.253-5.497-12.253-12.252
		C225.771,64.817,229.229,60.266,234.024,58.602z"/>
	<path d="M287.735,90.423c11.167,0,20.252-9.085,20.252-20.252s-9.085-20.252-20.252-20.252c-11.168,0-20.253,9.085-20.253,20.252
		S276.567,90.423,287.735,90.423z M283.735,58.602v6.151c0,2.209,1.791,4,4,4s4-1.791,4-4v-6.151
		c4.795,1.663,8.252,6.215,8.252,11.568c0,6.756-5.496,12.252-12.252,12.252s-12.253-5.497-12.253-12.252
		C275.482,64.817,278.94,60.266,283.735,58.602z"/>
	<path d="M213.397,42.827c6.687,0,12.126-5.439,12.126-12.126s-5.439-12.126-12.126-12.126s-12.126,5.44-12.126,12.126
		S206.711,42.827,213.397,42.827z M213.397,26.574c2.275,0,4.126,1.851,4.126,4.126c0,2.275-1.851,4.126-4.126,4.126
		s-4.126-1.851-4.126-4.126C209.271,28.425,211.122,26.574,213.397,26.574z"/>
</g>
<g>
</g>
<g>
</g>
<g>
</g>
<g>
</g>
<g>
</g>
<g>
</g>
<g>
</g>
<g>
</g>
<g>
</g>
<g>
</g>
<g>
</g>
<g>
</g>
<g>
</g>
<g>
</g>
<g>
</g>
</symbol>

<symbol id="icon-electric-guitar" viewBox="0 0 512.001 512.001" >
<title>electric-guitar</title>
<g>
	<g>
		<path d="M196.607,327.733c0,0-24.401-24.401-24.411-24.411c-8.633-8.633-23.042-8.625-31.668,0c-8.731,8.73-8.731,22.937,0,31.668
			l24.411,24.411c4.229,4.229,9.852,6.559,15.834,6.559c5.981,0,11.604-2.33,15.834-6.559
			C205.338,350.67,205.338,336.464,196.607,327.733z M186.001,348.795c-2.852,2.852-7.607,2.848-10.455,0l-24.411-24.411
			c-2.883-2.883-2.883-7.573,0-10.455c2.852-2.852,7.608-2.847,10.455,0l24.411,24.411
			C188.883,341.222,188.883,345.913,186.001,348.795z"/>
	</g>
</g>
<g>
	<g>
		<path d="M164.073,375.937c0,0-40.044-40.044-40.08-40.08c-3.507-3.509-8.3-5.286-13.103-5.29
			c-4.775-0.004-9.56,1.745-13.104,5.289c0,0-15.013,15.013-15.024,15.024c-7.128,7.128-7.116,19.092,0,26.207
			c0,0,40.052,40.052,40.08,40.08c7.146,7.146,19.066,7.142,26.207,0c0,0,15.015-15.014,15.024-15.023
			C171.215,395.001,171.207,383.07,164.073,375.937z M153.467,391.535c0,0-15.024,15.023-15.024,15.024
			c-1.366,1.366-3.632,1.361-4.993,0l-40.08-40.08c-1.362-1.362-1.357-3.636,0-4.993c0,0,15.024-15.024,15.025-15.025
			c1.362-1.36,3.635-1.356,4.993,0.001c0,0,40.011,40.011,40.08,40.08c0.651,0.652,0.992,1.57,0.995,2.495
			C154.466,389.945,154.142,390.859,153.467,391.535z"/>
	</g>
</g>
<g>
	<g>
		<path d="M61.662,372.473c-2.928-2.93-7.677-2.93-10.606,0l-5.954,5.954c-2.929,2.929-2.929,7.677,0,10.606
			c2.841,2.841,7.691,2.915,10.606,0l5.954-5.954C64.591,380.15,64.591,375.401,61.662,372.473z"/>
	</g>
</g>
<g>
	<g>
		<path d="M127.458,438.267c-2.929-2.929-7.678-2.929-10.607-0.001l-5.954,5.954c-2.929,2.929-2.929,7.678,0,10.607
			c2.833,2.833,7.703,2.903,10.607,0l5.954-5.954C130.387,445.944,130.387,441.195,127.458,438.267z"/>
	</g>
</g>
<g>
	<g>
		<path d="M99.32,423.829c-0.278-4.133-3.857-7.256-7.985-6.98c-2.13,0.143-4.272-0.714-5.906-2.348s-2.49-3.787-2.348-5.906
			c0.277-4.133-2.848-7.708-6.981-7.986c-4.127-0.276-7.708,2.848-7.985,6.98c-0.433,6.438,2.012,12.823,6.707,17.518
			c4.57,4.57,11.046,7.148,17.518,6.707C96.473,431.537,99.598,427.961,99.32,423.829z"/>
	</g>
</g>
<g>
	<g>
		<path d="M491.442,12.071c-2.348,0-4.662,0.398-6.88,1.186l-55.439,19.672c-1.353,0.48-2.539,1.338-3.418,2.472L398.81,70.08
			L236.908,221.809c-7.012-1.294-14.439-3.879-16.224-9.057c-3.127-9.067,9.257-25.725,15.739-32.365
			c0.155-0.158,0.302-0.322,0.442-0.493c10.667-13,9.916-21.99,7.407-27.242c-3.14-6.573-10.509-10.293-20.222-10.225
			c-33.353,0.235-56.01,29.319-68.579,56.877c-16.781,36.79-21.291,46.678-58.424,66.216c-3.666,1.929-5.073,6.464-3.145,10.13
			c1.929,3.665,6.464,5.073,10.13,3.145c41.668-21.926,48.045-35.905,65.086-73.265c9.87-21.639,28.124-47.861,55.047-48.103
			c4.274-0.038,6.313,1.148,6.572,1.691c0.356,0.746,0.134,4.36-5.285,11.038c-1.255,1.315-6.692,7.163-11.566,14.8
			c-8.029,12.582-10.515,23.571-7.39,32.664c2.531,7.364,8.425,12.789,17.583,16.212c0,0-46.345,43.433-46.396,43.481
			c-3.045,2.854-3.12,7.831-0.175,10.775c0,0,34.327,34.327,34.336,34.336c3.031,3.031,7.826,2.775,10.776-0.175l18.079-19.29
			c4.997,9.57,11.689,16.064,19.984,19.368c11.607,4.623,25.935,2.585,41.431-5.894c3.123-1.709,7.11,1.54,5.64,4.915
			c-4.386,10.073-18.96,16.321-33.055,22.364c-10.081,4.322-20.505,8.791-27.949,15.032c-0.152,0.127-0.299,0.26-0.44,0.399
			c-7.606,7.479-14.5,17.195-22.352,31.503c-7.642,13.926-16.209,32.132-27.554,56.994c-8.247,18.073-19.445,29.693-33.284,34.538
			c-16.48,5.769-37.111,2.47-61.323-9.804c-31.769-16.105-58.135-42.471-74.239-74.239c-12.274-24.212-15.572-44.844-9.803-61.323
			c4.845-13.838,16.465-25.037,34.538-33.284c9.274-4.232,16.576-7.602,22.979-10.605c3.75-1.759,5.364-6.225,3.605-9.975
			c-1.759-3.75-6.227-5.364-9.975-3.605c-6.354,2.98-13.61,6.33-22.836,10.54c-21.933,10.008-36.221,24.13-42.468,41.973
			c-7.171,20.484-3.611,45.066,10.582,73.062c17.536,34.59,46.245,63.297,80.835,80.833c18.628,9.444,35.742,14.181,51.146,14.18
			c7.746,0,15.061-1.198,21.915-3.598c17.844-6.247,31.966-20.535,41.974-42.468c23.102-50.627,33.672-71.031,46.558-83.812
			c5.757-4.734,14.622-8.535,24.001-12.556c16.783-7.194,34.137-14.634,40.898-30.162c7.06-16.214-11.225-32.474-26.594-24.062
			c-7.98,4.366-19.435,8.799-28.68,5.116c-6.017-2.396-10.869-8.191-14.458-17.251l113.008-120.583
			c2.832-3.022,2.678-7.769-0.344-10.602c-3.022-2.833-7.769-2.678-10.601,0.344L216.971,306.337l-23.38-23.38L404.2,85.581
			l10.148,10.148l-39.981,42.661c-2.832,3.022-2.678,7.769,0.344,10.601c3.021,2.832,7.769,2.679,10.601-0.344l42.487-45.334
			c0.556,0.02,1.143,0.034,1.79,0.034c10.435,0,36.12-3.168,49.308-32.492c4.39-9.761,14.079-16.068,21.435-19.641
			c5.517-2.68,9.544-7.612,11.051-13.532C514.639,24.89,504.604,12.071,491.442,12.071z M493.776,37.719
			c-13.75,6.679-23.626,16.009-28.561,26.981c-9.252,20.573-26.292,23.645-35.629,23.645c-0.527,0-1.008-0.011-1.435-0.027
			l-13.803-13.803l21.861-28.187c0,0,53.313-18.917,53.368-18.937C496.114,25.071,499.916,34.738,493.776,37.719z"/>
	</g>
</g>
<g>
</g>
<g>
</g>
<g>
</g>
<g>
</g>
<g>
</g>
<g>
</g>
<g>
</g>
<g>
</g>
<g>
</g>
<g>
</g>
<g>
</g>
<g>
</g>
<g>
</g>
<g>
</g>
<g>
</g>
</symbol>

<symbol id="icon-robot" viewBox="-50 0 512 512.00198">
<title>robot</title>

<svg height="512pt" viewBox="-50 0 512 512.00198" width="512pt" xmlns="http://www.w3.org/2000/svg"><path d="m187.992188 89.410156c3.347656-9.488281 1.40625-20.445312-4.949219-27.917968-6.691407-7.863282-16.53125-11.203126-26.996094-9.160157-11.355469 2.21875-20.957031 10.488281-24.457031 21.074219-1.878906 5.679688-2.050782 11.738281-.488282 17.058594 2.117188 7.203125 7.578126 13.476562 14.613282 16.78125 3.898437 1.832031 8.273437 2.761718 12.699218 2.761718 3.058594 0 6.148438-.445312 9.121094-1.34375 9.433594-2.851562 17.273438-10.230468 20.457032-19.253906zm-9.46875-3.339844c-2.140626 6.066407-7.464844 11.039063-13.898438 12.984376-4.925781 1.492187-10.261719 1.164062-14.640625-.894532-4.472656-2.101562-7.929687-6.035156-9.25-10.523437-.992187-3.382813-.855469-7.320313.386719-11.082031v.003906c2.378906-7.199219 8.992187-12.839844 16.847656-14.375 6.804688-1.324219 13.15625.792968 17.425781 5.816406 4.019531 4.722656 5.277344 11.984375 3.128907 18.070312zm0 0"/><path d="m231.625 107.246094c3.898438 1.832031 8.273438 2.761718 12.699219 2.761718 3.0625 0 6.148437-.445312 9.121093-1.34375 9.433594-2.851562 17.273438-10.230468 20.457032-19.253906 3.351562-9.488281 1.40625-20.445312-4.945313-27.917968-6.691406-7.863282-16.53125-11.203126-26.996093-9.160157-11.359376 2.21875-20.957032 10.488281-24.457032 21.074219-1.878906 5.679688-2.054687 11.738281-.488281 17.0625 2.117187 7.199219 7.578125 13.472656 14.609375 16.777344zm-4.589844-30.6875c2.378906-7.199219 8.992188-12.839844 16.847656-14.375 1.328126-.257813 2.644532-.386719 3.925782-.386719 5.28125 0 10.0625 2.160156 13.5 6.203125 4.019531 4.722656 5.273437 11.984375 3.128906 18.070312-2.140625 6.066407-7.46875 11.039063-13.898438 12.984376-4.925781 1.492187-10.265624 1.164062-14.644531-.894532-4.472656-2.101562-7.929687-6.035156-9.25-10.523437-.992187-3.382813-.855469-7.320313.390625-11.078125zm0 0"/><path d="m228.304688 123.304688c2.773437-.097657 4.941406-2.417969 4.84375-5.191407-.09375-2.710937-2.320313-4.847656-5.011719-4.847656-.058594 0-.117188.003906-.175781.003906-16.75.578125-33.71875.273438-50.4375-.910156-2.769532-.203125-5.164063 1.890625-5.359376 4.65625-.195312 2.761719 1.886719 5.164063 4.652344 5.359375 11.476563.8125 23.070313 1.21875 34.632813 1.21875 5.632812 0 11.257812-.097656 16.855469-.289062zm0 0"/><path d="m410.230469 379.773438c-3.09375-11.785157-10.148438-22.179688-19.863281-29.265626-3-2.1875-6.238282-4.03125-9.628907-5.519531 12.152344-22.449219 11.046875-47.96875 7.894531-65.625-5.316406-29.828125-19.292968-55.824219-39.351562-73.207031-12.578125-10.902344-28.703125-19.558594-49.269531-26.457031-.894531-4.179688-2.296875-8.277344-4.929688-11.886719-6.6875-9.179688-17.714843-8.917969-25.867187-8.726562-5.421875.128906-10.976563-.003907-16.46875-.199219.433594-4.414063.777344-8.855469 1.03125-13.277344 3.40625-.308594 6.820312-.671875 10.226562-1.117187 7-.910157 15.03125-2.273438 21.71875-7 8.773438-6.195313 13.90625-17.007813 15.691406-33.042969 1.632813-14.675781.972657-29.460938-1.964843-43.9375-1.101563-5.429688-2.699219-11.734375-6.207031-17.363281-4.613282-7.410157-12.464844-13.109376-22.101563-16.050782-6.867187-2.09375-13.425781-2.066406-19.746094-2.03125-2.117187.007813-4.308593.019532-6.453125-.054687-.074218-.003907-.152344-.003907-.230468-.007813-1.515626-6.722656-5.945313-13.015625-12.257813-17.351562-5.226563-3.585938-11.773437-5.960938-19.453125-7.050782-17.953125-2.550781-36.117188 3.125-47.410156 14.8125-3.445313 3.566407-6.007813 7.390626-7.636719 11.375-5.136719.601563-10.132813 1.304688-15.023437 2.132813-10.074219 1.707031-20.339844 4.382813-27.183594 12.320313-5.566406 6.453124-7.378906 14.949218-8.421875 22.40625-2.324219 16.628906-2.199219 33.46875.367187 50.054687.675782 4.375 1.640625 9.410156 4.539063 13.804687 4.929687 7.488282 13.75 10.558594 20.882812 12.394532 6.523438 1.679687 13.078125 2.90625 19.664063 3.828125l-.15625 14.796875v.023437c-10.835938.441407-21.113282 1.066407-31.175782 1.898438-4.738281.390625-11.898437.980469-17.332031 5.355469-5.503906 4.429687-7.492187 11.261718-8.375 16.8125-.546875.03125-1.101562.128906-1.636719.347656-14.820312 6.0625-28.699218 16.707031-40.136718 30.789062-9.5625 11.773438-17.617188 25.976563-24.625 43.429688-13.015625 32.398437-15.71875 61.226562-8.035156 85.679687.066406.203125.152343.394531.242187.585938-.050781.03125-.101563.0625-.152344.09375-9.539062 6.125-16.710937 16.871093-19.671875 29.480469-2.328125 9.921874-2.296875 21.140624.105469 34.296874.230469 1.257813.710937 3.878907 2.957031 5.761719 1.757813 1.472657 3.769532 1.816407 5.378906 1.816407.949219 0 1.753907-.117188 2.296876-.199219l69.09375-10.109375c1.230468-.179688 3.78125-.554688 5.703124-2.59375 1.660157-1.753906 2.03125-3.851563 2.230469-4.976563 1.3125-7.410156 2.539063-16.1875 1.699219-25.09375-.867188-9.203125-4.195312-19.066406-8.6875-25.738281-4.003906-5.949219-11.355469-8.8125-18.539062-10.148438-4.5-17.269531-3.796876-35.992187 2.023437-52.855468 5.152344-14.929688 14.359375-28.53125 26.246094-38.964844-.257813 13.894531-.289063 27.71875-.316407 41.34375-.003906 2.96875-.015624 7.453125 2.671876 11.175781 3.402343 4.714844 9.214843 5.699219 12.339843 6.226563 1.082031.183594 2.167969.332031 3.253907.5-2.109376 46.980468-3.261719 94.605468-3.421876 141.613281-3.945312 1.578125-7.707031 3.730469-11.0625 6.679687-6.074218 5.332032-10.359374 12.898438-12.398437 21.875-1.578125 6.953126-1.820313 14.800782-.742187 23.996094.125 1.074219.363281 3.078125 1.675781 4.898438 1.554687 2.15625 3.777343 3.003906 5.539062 3.5 4.976563 1.40625 10.054688 1.65625 14.539063 1.875 13.953125.679687 28.097656 1.25 42.042968 1.691406 6.203126.199219 12.339844.363281 18.433594.363281 6.695313 0 13.335938-.199219 19.945313-.78125 2.121093-.1875 5.667969-.5 8.695312-2.523437 2.710938-1.804688 4.234375-4.402344 5.144531-6.199219 1.1875-2.347656 2.066407-4.855469 2.65625-7.503906.542969 3.414062 1.550782 6.605469 3.042969 9.546875.90625 1.792968 2.429688 4.390625 5.140625 6.199218 3.03125 2.023438 6.578125 2.335938 8.695313 2.523438 6.613281.582031 13.253906.785156 19.949219.785156 6.089843 0 12.230468-.167968 18.429687-.367187 13.945313-.441407 28.09375-1.011719 42.042969-1.691407 4.484375-.21875 9.570312-.46875 14.542968-1.875 1.757813-.496093 3.980469-1.34375 5.539063-3.503906 1.316406-1.820312 1.546875-3.824218 1.671875-4.898437 1.078125-9.195313.835938-17.042969-.742188-23.992188-2.039062-8.976562-6.324218-16.542969-12.394531-21.875-3.359375-2.949219-7.121093-5.105469-11.066406-6.679687-.160156-46.605469-1.296875-93.816406-3.367187-140.40625 2.335937-.246094 5.050781-.875 7.394531-2.769532 4.648437-3.75 4.792969-9.835937 4.867187-13.105468.421875-18.226563.628906-37.183594-.042968-56.453125 7.179687 4.171875 13.804687 10.203125 19.433593 17.753906 6.167969 8.265625 11.332031 18.515625 15.792969 31.335937 4.480469 12.878907 6.496094 23.378907 6.335938 33.035157-.152344 9.410156-2.46875 18.828125-6.695313 27.234375-.113281.222656-.183594.457031-.261719.6875-1.792968.785156-3.496094 1.671875-5.078125 2.667968-4.347656 2.734376-8.3125 6.53125-11.785156 11.28125-6.222656 8.503907-9.972656 18.980469-10.566406 29.5-.066407 1.191407-.246094 4.359376 1.972656 6.84375 1.636719 1.835938 3.75 2.371094 4.886719 2.660157 23.597656 5.980469 48 12.164062 72.847656 14.617187.921875.089844 2.058594.203125 3.304688.203125 1.519531 0 3.207031-.164062 4.886718-.738281 7.941406-2.703125 9.175782-10.375 9.992188-15.453125l.207031-1.269531c.832031-4.921875 1.550781-9.171875.027344-14.972656zm-58.308594-38.777344c2.894531-7.769532 4.472656-16.046875 4.609375-24.320313.007812-.515625.003906-1.035156.003906-1.554687 7.757813-.628906 15.601563-.800782 23.375-.519532-1.183594 9.117188-3.835937 18.433594-8.820312 27.085938-.023438.039062-.035156.082031-.054688.125-6.253906-1.417969-12.757812-1.714844-19.113281-.816406zm26.832031-59.871094c1.214844 6.8125 2.101563 14.890625 1.90625 23.457031-8.25-.3125-16.574218-.136719-24.808594.523438-.980468-7.589844-3.015624-15.734375-6.214843-24.929688-.238281-.691406-.484375-1.375-.730469-2.054687 9.097656-2.769532 18.4375-4.898438 27.832031-6.34375.765625 3.0625 1.449219 6.179687 2.015625 9.347656zm-205.945312-258.734375c9.097656-9.417969 23.953125-13.957031 38.78125-11.851563 6.132812.871094 11.238281 2.683594 15.179687 5.390626 3.394531 2.328124 5.945313 5.414062 7.332031 8.738281-17.808593-.519531-36.386718-.753907-54.972656.300781-3.078125.175781-6.085937.382812-9.039062.621094.796875-1.082032 1.703125-2.148438 2.71875-3.199219zm-52.195313 99.59375c-1.785156-2.710937-2.460937-6.335937-3-9.820313-2.417969-15.617187-2.535156-31.472656-.347656-47.128906.882813-6.3125 2.230469-12.769531 6.082031-17.238281 4.769532-5.535156 13.035156-7.585937 21.261719-8.980469 10.953125-1.855468 22.429687-3.105468 35.085937-3.824218 21.972657-1.25 44.109376-.660157 64.90625.050781 2.339844.078125 4.628907.066406 6.839844.058593 5.839844-.027343 11.359375-.054687 16.773438 1.597657 7.316406 2.230469 13.179687 6.40625 16.507812 11.753906 2.664063 4.273437 3.964844 9.503906 4.890625 14.054687 2.726563 13.453126 3.34375 27.191407 1.824219 40.832032-1.449219 13.015625-5.210938 21.507812-11.507812 25.953125-4.808594 3.398437-11.410157 4.488281-17.21875 5.242187-23.644532 3.074219-47.925782 2.660156-68.824219 2.035156-19.96875-.601562-39.445313-1.542968-58.265625-6.390624-5.722656-1.476563-11.984375-3.601563-15.007813-8.195313zm72.96875 24.617187c7.984375.242188 16.449219.449219 25.203125.449219 8.109375 0 16.460938-.191406 24.894532-.6875-.246094 4.042969-.578126 8.105469-.980469 12.132813-2.824219-.109375-5.667969-.214844-8.5-.277344-28.4375-.636719-50.460938-.648438-71.136719-.039062-.121094-.203126-.242188-.402344-.394531-.585938l.136719-12.6875c10.160156.980469 20.410156 1.386719 30.777343 1.695312zm-142.542969 163.613282c-7.929687.191406-15.9375.101562-23.859374-.285156.375-9.640626 2.09375-19.855469 5.152343-30.605469l23.367188 3.046875c-2.839844 8.984375-4.402344 18.394531-4.660157 27.84375zm-23.746093 9.761718c5.253906.25 10.535156.390626 15.816406.390626 2.71875 0 5.4375-.042969 8.148437-.109376.347657 4.96875 1.058594 9.902344 2.132813 14.753907-5.199219-.039063-10.726563.667969-16.472656 2.128906-2.226563.5625-4.304688 1.203125-6.261719 1.910156-1.828125-6.042969-2.941406-12.40625-3.363281-19.074219zm46.878906 31.8125c3.558594 5.285157 6.3125 13.558594 7.023437 21.074219.707032 7.503907-.335937 15.21875-1.496093 21.847657l-68.144531 9.972656c-2-11.40625-2.019532-21.019532-.058594-29.367188 2.371094-10.097656 7.957031-18.597656 15.324218-23.328125 3.339844-2.144531 7.453126-3.820312 12.570313-5.121093 4.785156-1.214844 9.34375-1.828126 13.582031-1.828126.832032 0 1.65625.023438 2.464844.070313 9.28125.546875 16.285156 3.042969 18.734375 6.679687zm-14.894531-79.027343c-.148438-.035157-.292969-.085938-.445313-.105469l-23.414062-3.054688c.996093-2.863281 2.058593-5.75 3.238281-8.679687 3.921875-9.765625 8.171875-18.421875 12.832031-26.144531 6.050781 6.429687 12.359375 12.714844 18.816407 18.710937-4.359376 6.007813-8.074219 12.484375-11.027344 19.273438zm32.617187-41.179688c-5.558593 4.125-10.671875 8.863281-15.277343 14.058594-6.699219-6.238281-13.246094-12.789063-19.472657-19.492187 1.496094-2.097657 3.03125-4.121094 4.613281-6.066407 9.511719-11.710937 20.804688-20.761719 32.835938-26.367187-1.039062 12.457031-1.664062 24.980468-2.046875 37.476562-.222656.117188-.445313.234375-.652344.390625zm70.453125 75.851563c5.769532.167968 11.546875.300781 17.332032.417968-.011719 5.632813-.050782 11.269532-.121094 16.914063-19.996094 1.625-40.226563 1.453125-60.199219-.503906.253906-6.492188.519531-12.972657.808594-19.441407 14.355469 1.652344 28.605469 2.210938 42.179687 2.613282zm16.242188 56.378906c-20.097656 1.640625-40.4375 1.5625-60.527344-.222656.265625-9.765625.570312-19.527344.917969-29.269532 11.050781 1.0625 22.175781 1.601563 33.304687 1.601563 9.046875 0 18.09375-.367187 27.09375-1.074219-.179687 9.648438-.4375 19.300782-.789062 28.964844zm-60.796875 9.828125c10.5625.917969 21.1875 1.402344 31.8125 1.402344 9.546875 0 19.09375-.390625 28.589843-1.132813-.445312 10.496094-.992187 20.988282-1.636718 31.460938-19.746094 1.8125-39.695313 1.492187-59.371094-.925782.160156-10.261718.355469-20.53125.605469-30.804687zm-.742188 40.921875c11.308594 1.34375 22.703125 2.027344 34.101563 2.027344 8.265625 0 16.535156-.375 24.769531-1.085938-.652344 9.691406-1.394531 19.367188-2.21875 29.011719-2.453125-.640625-4.605469-1.027344-6.144531-1.246094-11.164063-1.589843-22.5625-2.359375-33.976563-2.351562-5.191406.015625-10.984375.261719-16.765625 1.320312.039063-9.203125.117188-18.433593.234375-27.675781zm72.5625 81.351562c-.617187 1.214844-1.207031 2.015626-1.753906 2.382813-.828125.550781-2.4375.734375-4.011719.875-12.070312 1.0625-24.472656.789063-37.175781.386719-13.886719-.441406-27.976563-1.011719-41.875-1.6875-4.132813-.203125-8.410156-.410156-12.28125-1.503906-.933594-8.003907-.742187-14.714844.574219-20.515626 1.542968-6.800781 4.824218-12.679687 9.230468-16.554687 8.355469-7.339844 21.109376-8.3125 31.289063-8.335937 10.945313-.035157 21.847656.726562 32.535156 2.246093 7.140625 1.015625 16.222657 4.21875 20.300781 10.160157 1.40625 2.042968 2.328126 4.609374 3.046876 6.847656 3.378906 10.53125 3.417968 19.179687.121093 25.699218zm18.503907-36.1875c-2.136719 3.109376-3.386719 6.527344-4.328126 9.460938-.972656 3.027344-1.699218 5.941406-2.207031 8.757812-.488281-3.4375-1.324219-7.039062-2.53125-10.800781-.941406-2.929687-2.191406-6.347656-4.328125-9.460937-2.949218-4.292969-7.042968-7.328125-11.246094-9.488282 4.035157-46.414062 6.132813-93.554687 6.242188-140.160156 7.808594.117188 15.625.175782 23.445312.195313-.019531.183593-.054687.363281-.054687.554687.074219 47.011719 2.179687 94.597656 6.253906 141.449219-4.203125 2.164063-8.296875 5.199219-11.246093 9.492187zm76.65625-94.09375c-20.085938 1.785157-40.425782 1.859376-60.527344.21875-.351563-9.660156-.609375-19.316406-.789063-28.960937 9 .703125 18.042969 1.074219 27.09375 1.074219 11.125 0 22.253907-.539063 33.304688-1.605469.347656 9.746094.652343 19.507813.917969 29.273437zm-60.132813 10.316407c9.5.746093 19.042969 1.136719 28.59375 1.136719 10.625 0 21.25-.484376 31.808594-1.402344.25 10.269531.445312 20.542968.605469 30.804687-19.679688 2.421875-39.628907 2.738281-59.371094.925781-.640625-10.476562-1.191406-20.964843-1.636719-31.464843zm58.039063-68.824219c.28125 6.382812.546874 12.777344.796874 19.179688-19.96875 1.957031-40.199218 2.128906-60.199218.503906-.074219-6.019532-.117188-12.035156-.128906-18.039063 0-.1875-.035157-.363281-.054688-.546875 19.898438-.054687 39.796875-.421875 59.585938-1.097656zm27.066406 170.769531c1.320312 5.800781 1.507812 12.511719.574218 20.515625-3.867187 1.09375-8.144531 1.300782-12.285156 1.503906-13.890625.675782-27.980468 1.246094-41.871094 1.6875-12.703124.402344-25.105468.675782-37.175781-.386718-1.574219-.140625-3.183593-.324219-4.007812-.871094-.550781-.371094-1.140625-1.171875-1.757813-2.386719-3.296875-6.519531-3.257812-15.167969.121094-25.699219.722656-2.242187 1.644531-4.804687 3.046875-6.847656 4.082031-5.941406 13.164063-9.144531 20.300781-10.160156 10.5-1.492188 21.246094-2.25 31.953125-2.25.195313 0 .390625 0 .582031.003906 10.179688.023438 22.933594.996094 31.289063 8.335938 4.410156 3.871094 7.6875 9.75 9.230469 16.554687zm-40.492188-34.933593c-11.332031-.035157-22.808594.761718-33.976562 2.351562-1.539063.21875-3.691406.605469-6.144532 1.246094-.820312-9.648438-1.5625-19.320313-2.214843-29.011719 8.234375.710937 16.5 1.082031 24.769531 1.082031 11.394531 0 22.792969-.679687 34.101562-2.023437.113282 9.242187.191407 18.46875.230469 27.679687-5.78125-1.0625-11.570312-1.308594-16.765625-1.324218zm25.683594-152.359376c-.03125 1.285157-.109375 4.703126-1.136719 5.53125-.726562.585938-2.867187.667969-4.144531.714844-42.132812 1.605469-84.867188 1.792969-127.011719.550782-17.398437-.511719-35.898437-1.269532-54.046875-4.335938-1.582031-.269531-4.878906-.824219-5.871094-2.203125-.78125-1.082031-.777343-3.507813-.773437-5.28125.066406-31.761719.128906-64.605469 3.144531-96.671875.542969-5.761719 1.445313-12.171875 5.3125-15.285156 2.796875-2.253906 7.207032-2.785156 11.859375-3.167969 12.632813-1.042969 25.59375-1.761719 39.632813-2.195313 20.917968-.652343 43.144531-.652343 72.074218-.003906 4.023438.089844 8.152344.257813 12.148438.421875 7.628906.308594 15.527344.628907 23.425781.441407 8.355469-.199219 14.078125.019531 17.421875 4.605468 2.648438 3.636719 3.496094 8.703125 4.195313 14.007813 4.597656 34.886719 4.527343 70.058593 3.769531 102.871093zm9.476562-67.777343c-.574218-10.589844-1.449218-21.246094-2.738281-31.910157 16.980469 6.164063 30.449219 13.65625 41.03125 22.828126 2.464844 2.136718 4.824219 4.429687 7.082031 6.847656-8.351562 5.40625-16.515624 11.230468-24.304687 17.386718-6.335937-6.554687-13.472656-11.695312-21.070313-15.152343zm27.597657 22.792969c7.785156-6.132813 15.945312-11.933594 24.289062-17.292969 7.441407 9.769531 13.402344 21.183593 17.597657 33.734375-9.6875 1.554687-19.316407 3.804687-28.691407 6.699218-3.765625-8.710937-7.992187-16.179687-12.796875-22.621093-.128906-.179688-.265625-.347657-.398437-.519531zm68.292969 147.453124-.019532.105469c-.070312.40625-.136718.824219-.203125 1.246094-.804687 5.007813-1.425781 6.898437-3.316406 7.542969-.925781.3125-2.34375.207031-3.96875.046875-23.84375-2.355469-47.621094-8.339844-70.628906-14.171875.589843-8.40625 3.632812-16.738282 8.605469-23.53125 2.722656-3.726563 5.761718-6.65625 9.027343-8.710938 2.855469-1.796875 6.257813-3.160156 10.109375-4.046875 11.828125-2.722656 24.738282-.078125 34.539063 7.070313 7.742187 5.644531 13.597656 14.28125 16.070312 23.699218.972657 3.714844.527344 6.363282-.214843 10.75zm0 0"/><path d="m248.96875 191.367188c-6.035156-1.375-12.421875-1.503907-18.597656-1.632813-2.671875-.054687-5.199219-.109375-7.628906-.257813-12.882813-.792968-23.445313-1.199218-33.238282-1.277343-13.523437-.105469-25.636718.421875-37.066406 1.605469-7.160156.742187-14.472656 2.1875-19.460938 7.6875-3.117187 3.4375-4.578124 7.730468-5.6875 11.855468-3.996093 14.824219-5.222656 30.082032-3.644531 45.351563.371094 3.605469.960938 7.765625 3.269531 11.542969 3.96875 6.492187 11.328126 9.105468 17.296876 10.652343 20.121093 5.226563 41.054687 5.320313 61.296874 5.414063 3.308594.011718 6.617188.027344 9.914063.066406l1.335937.015625c1.660157.019531 3.335938.039063 5.023438.039063 5.0625 0 10.21875-.183594 15.371094-1.101563 8.753906-1.558594 16.078125-5.140625 21.179687-10.359375 6.007813-6.144531 9.550781-14.925781 10.832031-26.847656 3.257813-30.308594-3.914062-49.042969-20.195312-52.753906zm10.210938 51.683593c-1.03125 9.59375-3.65625 16.429688-8.027344 20.902344-4.585938 4.6875-11.101563 6.664063-15.761719 7.492187-5.933594 1.058594-12.042969.984376-18.511719.90625l-1.34375-.015624c-3.324218-.039063-6.648437-.054688-9.980468-.070313-19.625-.089844-39.917969-.179687-58.820313-5.085937-4.140625-1.078126-9.164063-2.75-11.253906-6.175782-1.214844-1.984375-1.59375-4.824218-1.851563-7.332031-1.449218-14.046875-.320312-28.078125 3.351563-41.710937.730469-2.714844 1.660156-5.769532 3.433593-7.726563 2.855469-3.148437 8.238282-3.945313 13.058594-4.445313 11.058594-1.148437 22.8125-1.65625 35.953125-1.550781 9.605469.074219 19.996094.476563 32.699219 1.257813 2.632812.160156 5.378906.21875 8.035156.273437 5.671875.117188 11.539063.238281 16.574219 1.386719 14.933594 3.402344 13.679687 30.429688 12.445313 41.894531zm0 0"/><path d="m196.117188 216.996094c-.023438 0-.046876 0-.070313 0-12.007813.171875-24.179687.203125-36.171875.101562-.015625 0-.03125 0-.042969 0-2.753906 0-4.996093 2.21875-5.019531 4.976563-.023438 2.769531 2.203125 5.039062 4.976562 5.0625 4.585938.039062 9.195313.058593 13.816407.058593 7.535156 0 15.089843-.054687 22.582031-.160156 2.773438-.039062 4.988281-2.316406 4.949219-5.089844-.039063-2.746093-2.277344-4.949218-5.019531-4.949218zm0 0"/><path d="m194.132812 237.4375-37.886718-1.125c-2.757813-.113281-5.082032 2.09375-5.164063 4.867188-.082031 2.769531 2.09375 5.082031 4.867188 5.167968l37.886719 1.128906h.152343c2.703125 0 4.929688-2.148437 5.011719-4.871093.082031-2.773438-2.09375-5.085938-4.867188-5.167969zm0 0"/></svg>
</symbol>

</defs>
</svg>
